<?xml version="1.0" encoding="UTF-8"?>
<svg id="Layer_1" xmlns="http://www.w3.org/2000/svg" version="1.1" viewBox="0 0 14400 14400">
  <!-- Generator: Adobe Illustrator 29.2.1, SVG Export Plug-In . SVG Version: 2.1.0 Build 116)  -->
  <defs>
    <style>
      .st0 {
        fill: #231f20;
      }
    </style>
  </defs>
  <g>
    <path class="st0" d="M7079.2,7250.76h-5.45v-41.41h5.34v4.29h.17c.89-1.47,2.19-2.68,3.9-3.62,1.72-.95,3.71-1.42,5.99-1.42,2.04,0,3.9.37,5.58,1.1,1.68.73,3.12,1.76,4.34,3.07,1.21,1.31,2.15,2.85,2.81,4.61.66,1.76.98,3.65.98,5.65s-.33,3.91-.98,5.68c-.66,1.78-1.58,3.33-2.78,4.64-1.2,1.31-2.64,2.35-4.34,3.1-1.7.75-3.61,1.13-5.73,1.13-1.97,0-3.82-.43-5.55-1.28-1.74-.85-3.11-2.05-4.11-3.6h-.17v18.04ZM7097.3,7223.04c0-1.28-.19-2.51-.58-3.71-.39-1.2-.97-2.26-1.74-3.19-.77-.93-1.73-1.66-2.87-2.2-1.14-.54-2.47-.81-3.97-.81-1.39,0-2.66.27-3.8.81-1.14.54-2.12,1.28-2.93,2.2-.81.93-1.44,1.99-1.88,3.19-.45,1.2-.67,2.46-.67,3.77s.22,2.57.67,3.77c.44,1.2,1.07,2.25,1.88,3.16.81.91,1.79,1.63,2.93,2.17,1.14.54,2.41.81,3.8.81,1.51,0,2.83-.28,3.97-.84,1.14-.56,2.1-1.31,2.87-2.23.77-.93,1.35-1.99,1.74-3.19.39-1.2.58-2.44.58-3.71Z"/>
    <path class="st0" d="M7105.82,7212.42c-.04-1.16-.1-2.18-.17-3.07h5.16c.08.7.14,1.5.17,2.41.04.91.06,1.65.06,2.23h.17c.77-1.62,1.9-2.93,3.39-3.92,1.49-.99,3.16-1.48,5.02-1.48.85,0,1.57.08,2.15.23l-.23,5.05c-.77-.19-1.6-.29-2.49-.29-1.31,0-2.46.24-3.42.72-.97.48-1.77,1.13-2.41,1.94-.64.81-1.11,1.75-1.42,2.81-.31,1.06-.46,2.17-.46,3.33v14.44h-5.45v-21.58c0-.73-.02-1.68-.06-2.84Z"/>
    <path class="st0" d="M7149.21,7222.86v.93c0,.31-.02.62-.06.93h-21.87c.04,1.15.3,2.24.78,3.25.48,1.02,1.13,1.9,1.94,2.65s1.75,1.33,2.81,1.76c1.06.42,2.19.63,3.39.63,1.86,0,3.46-.41,4.81-1.22,1.35-.81,2.42-1.8,3.19-2.96l3.83,3.07c-1.47,1.95-3.2,3.38-5.19,4.3-1.99.92-4.21,1.38-6.64,1.38-2.09,0-4.02-.35-5.8-1.04-1.78-.7-3.31-1.67-4.58-2.93-1.28-1.26-2.28-2.77-3.02-4.55-.73-1.78-1.1-3.75-1.1-5.92s.36-4.09,1.07-5.89c.72-1.8,1.71-3.33,2.99-4.61s2.79-2.27,4.53-2.99c1.74-.72,3.62-1.07,5.64-1.07s3.85.33,5.49.99c1.65.66,3.04,1.6,4.19,2.84,1.14,1.24,2.02,2.74,2.64,4.5.62,1.76.93,3.74.93,5.94ZM7143.64,7220.66c-.04-1.08-.22-2.1-.55-3.04-.33-.95-.81-1.77-1.45-2.46-.64-.7-1.43-1.25-2.38-1.65-.95-.41-2.06-.61-3.33-.61-1.16,0-2.25.2-3.28.61-1.02.41-1.91.96-2.67,1.65-.75.7-1.37,1.52-1.86,2.46-.48.95-.76,1.96-.84,3.04h16.36Z"/>
    <path class="st0" d="M7168.52,7213.82h-6.38v23.03h-5.45v-23.03h-5.45v-4.47h5.45v-5.74c0-1.62.18-3.12.55-4.5.37-1.37.97-2.56,1.8-3.57.83-1.01,1.89-1.8,3.19-2.38,1.29-.58,2.87-.87,4.73-.87,1.31,0,2.46.14,3.42.41l-.64,4.7c-.43-.12-.85-.21-1.28-.29-.43-.08-.91-.12-1.45-.12-1.04,0-1.89.18-2.52.55-.64.37-1.13.86-1.48,1.48-.35.62-.58,1.32-.7,2.12-.12.79-.17,1.62-.17,2.47v5.74h6.38v4.47Z"/>
    <path class="st0" d="M7196.94,7222.86v.93c0,.31-.02.62-.06.93h-21.87c.04,1.15.3,2.24.78,3.25.48,1.02,1.13,1.9,1.94,2.65s1.75,1.33,2.81,1.76c1.06.42,2.19.63,3.39.63,1.86,0,3.46-.41,4.81-1.22,1.35-.81,2.42-1.8,3.19-2.96l3.83,3.07c-1.47,1.95-3.2,3.38-5.19,4.3-1.99.92-4.21,1.38-6.64,1.38-2.09,0-4.02-.35-5.8-1.04-1.78-.7-3.31-1.67-4.58-2.93-1.28-1.26-2.28-2.77-3.02-4.55-.73-1.78-1.1-3.75-1.1-5.92s.36-4.09,1.07-5.89c.72-1.8,1.71-3.33,2.99-4.61s2.79-2.27,4.53-2.99c1.74-.72,3.62-1.07,5.64-1.07s3.85.33,5.49.99c1.65.66,3.04,1.6,4.19,2.84,1.14,1.24,2.02,2.74,2.64,4.5.62,1.76.93,3.74.93,5.94ZM7191.37,7220.66c-.04-1.08-.22-2.1-.55-3.04-.33-.95-.81-1.77-1.45-2.46-.64-.7-1.43-1.25-2.38-1.65-.95-.41-2.06-.61-3.33-.61-1.16,0-2.25.2-3.28.61-1.02.41-1.91.96-2.67,1.65-.75.7-1.37,1.52-1.86,2.46-.48.95-.76,1.96-.84,3.04h16.36Z"/>
    <path class="st0" d="M7200.94,7212.42c-.04-1.16-.1-2.18-.17-3.07h5.16c.08.7.14,1.5.17,2.41.04.91.06,1.65.06,2.23h.17c.77-1.62,1.9-2.93,3.39-3.92,1.49-.99,3.16-1.48,5.02-1.48.85,0,1.57.08,2.15.23l-.23,5.05c-.77-.19-1.6-.29-2.49-.29-1.31,0-2.46.24-3.42.72-.97.48-1.77,1.13-2.41,1.94-.64.81-1.11,1.75-1.42,2.81-.31,1.06-.46,2.17-.46,3.33v14.44h-5.45v-21.58c0-.73-.02-1.68-.06-2.84Z"/>
    <path class="st0" d="M7245.49,7222.86v.93c0,.31-.02.62-.06.93h-21.87c.04,1.15.3,2.24.78,3.25.48,1.02,1.13,1.9,1.94,2.65s1.75,1.33,2.81,1.76c1.06.42,2.19.63,3.39.63,1.86,0,3.46-.41,4.81-1.22,1.35-.81,2.42-1.8,3.19-2.96l3.83,3.07c-1.47,1.95-3.2,3.38-5.19,4.3-1.99.92-4.21,1.38-6.64,1.38-2.09,0-4.02-.35-5.8-1.04-1.78-.7-3.31-1.67-4.58-2.93-1.28-1.26-2.28-2.77-3.02-4.55-.73-1.78-1.1-3.75-1.1-5.92s.36-4.09,1.07-5.89c.72-1.8,1.71-3.33,2.99-4.61s2.79-2.27,4.53-2.99c1.74-.72,3.62-1.07,5.64-1.07s3.85.33,5.49.99c1.65.66,3.04,1.6,4.19,2.84,1.14,1.24,2.02,2.74,2.64,4.5.62,1.76.93,3.74.93,5.94ZM7239.92,7220.66c-.04-1.08-.22-2.1-.55-3.04-.33-.95-.81-1.77-1.45-2.46-.64-.7-1.43-1.25-2.38-1.65-.95-.41-2.06-.61-3.33-.61-1.16,0-2.25.2-3.28.61-1.02.41-1.91.96-2.67,1.65-.75.7-1.37,1.52-1.86,2.46-.48.95-.76,1.96-.84,3.04h16.36Z"/>
    <path class="st0" d="M7254.47,7209.35c.08.7.13,1.48.17,2.35s.06,1.6.06,2.18h.17c.35-.73.82-1.42,1.42-2.06.6-.64,1.29-1.2,2.06-1.68.77-.48,1.62-.86,2.55-1.13.93-.27,1.89-.41,2.9-.41,1.78,0,3.31.3,4.58.9,1.28.6,2.34,1.4,3.19,2.41.85,1.01,1.48,2.19,1.88,3.54.41,1.35.61,2.8.61,4.35v17.05h-5.45v-15.25c0-1.12-.09-2.18-.26-3.19-.17-1.01-.49-1.89-.96-2.67-.46-.77-1.1-1.39-1.91-1.86-.81-.46-1.86-.7-3.13-.7-2.17,0-3.94.82-5.31,2.46-1.37,1.64-2.06,3.84-2.06,6.58v14.62h-5.45v-21.58c0-.73-.02-1.68-.06-2.84-.04-1.16-.1-2.18-.17-3.07h5.16Z"/>
    <path class="st0" d="M7299.08,7216.31c-.58-.89-1.45-1.63-2.61-2.23-1.16-.6-2.4-.9-3.71-.9-1.43,0-2.7.27-3.8.81-1.1.54-2.04,1.27-2.81,2.18-.77.91-1.36,1.96-1.77,3.16-.41,1.2-.61,2.46-.61,3.77s.2,2.57.61,3.77c.41,1.2,1,2.25,1.77,3.16.77.91,1.72,1.63,2.84,2.17,1.12.54,2.4.81,3.83.81s2.66-.27,3.8-.81c1.14-.54,2.08-1.28,2.81-2.2l3.65,3.31c-1.16,1.35-2.61,2.41-4.35,3.16-1.74.75-3.71,1.13-5.92,1.13s-4.09-.35-5.89-1.04-3.35-1.67-4.67-2.93c-1.31-1.26-2.35-2.77-3.1-4.55-.75-1.78-1.13-3.77-1.13-5.97s.37-4.14,1.1-5.92c.73-1.78,1.76-3.31,3.07-4.58,1.31-1.28,2.87-2.26,4.67-2.96,1.8-.7,3.74-1.04,5.83-1.04,1.93,0,3.86.39,5.77,1.16,1.91.77,3.43,1.9,4.55,3.36l-3.94,3.19Z"/>
    <path class="st0" d="M7333,7222.86v.93c0,.31-.02.62-.06.93h-21.87c.04,1.15.3,2.24.78,3.25.48,1.02,1.13,1.9,1.94,2.65.81.75,1.75,1.33,2.81,1.76s2.19.63,3.39.63c1.86,0,3.46-.41,4.81-1.22s2.42-1.8,3.19-2.96l3.83,3.07c-1.47,1.95-3.2,3.38-5.19,4.3-1.99.92-4.21,1.38-6.64,1.38-2.09,0-4.02-.35-5.8-1.04s-3.31-1.67-4.58-2.93c-1.28-1.26-2.28-2.77-3.02-4.55-.74-1.78-1.1-3.75-1.1-5.92s.36-4.09,1.07-5.89c.72-1.8,1.71-3.33,2.99-4.61,1.28-1.28,2.79-2.27,4.53-2.99,1.74-.72,3.62-1.07,5.64-1.07s3.85.33,5.49.99c1.65.66,3.04,1.6,4.18,2.84,1.14,1.24,2.02,2.74,2.64,4.5.62,1.76.93,3.74.93,5.94ZM7327.44,7220.66c-.04-1.08-.22-2.1-.55-3.04-.33-.95-.81-1.77-1.45-2.46-.64-.7-1.43-1.25-2.38-1.65-.95-.41-2.06-.61-3.33-.61-1.16,0-2.25.2-3.28.61-1.03.41-1.91.96-2.67,1.65-.75.7-1.37,1.52-1.86,2.46-.48.95-.76,1.96-.84,3.04h16.36Z"/>
  </g>
  <path class="st0" d="M7122.21,7198.51v-9.18h-.71v-.32h.71v-25.36h-4.37v-.32h4.37v-14.38h.26v14.38h5.52v-14.57h.26v14.57h3.4c1.28-.39,2.7-.64,4.17-.64s2.89.26,4.17.64h3.4v-14.38h.26v14.38h5.52v-14.57h.26v14.57h4.04v.32h-4.04v20.22h2.44v.32h-2.44v4.81h2.44v.32h-2.44v9.5h-.26v-9.5h-5.52v9.5h-.26v-9.5h-3.4c-.38.13-.83.26-1.22.32h2.63v.32h-11.88v-.32h3.34c-.38-.06-.83-.19-1.22-.32h-3.4v9.24h-.26v-9.24h-5.52v9.18h-.26ZM7122.46,7166.22v.45l5.26-3.02h-.83l-4.43,2.57ZM7122.46,7165.38v.45l3.85-2.18h-.83l-3.02,1.73ZM7122.46,7164.61v.45l2.44-1.41h-.77l-1.67.96ZM7122.46,7163.78v.45l1.09-.58h-.83l-.26.13ZM7122.46,7167.44l5.52-3.15v-.45l-5.52,3.15v.45ZM7122.46,7168.27l5.52-3.15v-.51l-5.52,3.21v.45ZM7122.46,7169.04l3.15-1.8c.32-.39.71-.77,1.09-1.09l-4.24,2.44v.45ZM7122.46,7169.88l1.99-1.16c.19-.26.45-.58.64-.83l-2.63,1.54v.45ZM7122.46,7170.65l1.28-.71c.13-.26.26-.45.39-.71l-1.67.96v.45ZM7122.46,7171.48l.77-.45c.06-.19.13-.45.26-.64l-1.03.64v.45ZM7122.46,7172.25l.39-.19.19-.58-.58.32v.45ZM7122.46,7173.09l.13-.06c.06-.19.06-.32.13-.51l-.26.13v.45ZM7123.1,7183.87h1.35c-.9-1.35-1.6-2.89-1.99-4.56v9.69h5.52v-1.54c-1.28-.9-2.44-1.99-3.34-3.27h-1.54v-.32ZM7122.59,7175.01c0,.19-.06.26-.06.45l5.46-3.15v-.45l-5.39,3.15ZM7122.53,7175.85v.45l5.46-3.15v-.51l-5.46,3.21ZM7122.53,7176.62v.45l5.46-3.15v-.45l-5.46,3.15ZM7122.53,7177.39c0,.13.06.32.06.45l5.39-3.08v-.51l-5.46,3.15ZM7122.66,7174.11c0,.19-.06.32-.06.51l5.39-3.08v-.51l-5.33,3.08ZM7122.59,7178.16c0,.13.06.32.06.45l5.33-3.08v-.45l-5.39,3.08ZM7122.85,7173.22c-.06.19-.06.32-.13.51l5.26-3.02v-.45l-5.14,2.95ZM7122.72,7178.86c0,.13.13.32.13.45l5.07-2.95v-.45l-5.2,2.95ZM7122.91,7179.63c.06.13.06.26.13.39l4.94-2.89v-.06c0-.13-.06-.26-.06-.38l-5.01,2.95ZM7123.1,7172.25c-.06.19-.06.39-.13.58l5.01-2.89v-.51l-4.88,2.82ZM7123.1,7180.28c.06.13.06.26.13.39l4.75-2.7v-.51l-4.88,2.82ZM7123.49,7171.23l-.19.58,4.69-2.7v-.45l-4.49,2.57ZM7123.3,7180.98l.19.39,4.49-2.63v-.45l-4.69,2.7ZM7123.62,7181.62c.06.13.06.26.13.38l4.24-2.44v-.51l-4.37,2.57ZM7124,7170.13c-.13.19-.19.45-.32.64l4.3-2.44v-.51l-3.98,2.31ZM7123.88,7182.27c.06.13.13.19.19.32l3.92-2.25v-.45l-4.11,2.38ZM7124.2,7182.84l.19.38,3.59-2.05v-.51l-3.79,2.18ZM7124.77,7168.91c-.19.26-.32.45-.45.71l3.66-2.12v-.45l-3.21,1.86ZM7124.58,7183.49c.06.13.13.19.19.32l3.21-1.86v-.45l-3.4,1.99ZM7125.09,7184.19c.06.06.06.13.13.19l.26-.19h-.38ZM7125.93,7167.44c-.26.26-.51.58-.77.9l2.82-1.6v-.51l-2.05,1.22ZM7125.22,7183.87h.83l1.93-1.09v-.51l-2.76,1.6ZM7125.35,7184.58c.06.13.19.19.26.32l1.28-.71h-.83l-.71.39ZM7125.8,7185.16c.06.13.26.13.32.26l1.86-1.03v-.19h-.51l-1.67.96ZM7126.64,7185.93l1.35-.77v-.45l-1.67.96c.13.13.19.13.32.26ZM7127.98,7165.58c-.45.32-.96.71-1.35,1.09l1.35-.77v-.32ZM7126.64,7183.87h.77l.58-.32v-.45l-1.35.77ZM7127.15,7186.44l.83-.45v-.51l-1.16.71c.13.06.19.19.32.26ZM7127.73,7186.89l.26-.13v-.45l-.58.32c.13.06.19.19.32.26ZM7128.24,7165.38v8.6c1.03-3.21,4.04-5.52,7.57-5.52s6.55,2.44,7.51,5.71v-.32h.06v-.51l-.06.06v-.39h.06v-.45h-.06v-.32h.06v-.51h-.06v-.32h.06v-.45h-.06v-.32h.06v-5.26c-1.03-.71-2.25-1.35-3.47-1.73h-8.22c-1.22.39-2.44,1.03-3.47,1.73ZM7128.24,7164.93c.77-.51,1.6-.96,2.5-1.28h-2.5v1.28ZM7135.81,7168.79c-3.92,0-7.25,3.02-7.57,6.87v1.35c.32,3.85,3.66,6.87,7.57,6.87,4.17,0,7.51-3.34,7.51-7.51s-3.34-7.57-7.51-7.57ZM7128.24,7178.93v.45l.26-.13c-.06-.13-.06-.26-.13-.39l-.13.06ZM7128.24,7179.7v.45l.51-.26c-.06-.13-.06-.26-.13-.39l-.38.19ZM7128.24,7180.53v.45l.9-.51c-.06-.13-.19-.19-.26-.32l-.64.39ZM7128.24,7181.3v.45l1.28-.71c-.06-.13-.19-.19-.26-.32l-1.03.58ZM7128.24,7182.14v.45l1.73-.96c-.06-.13-.19-.19-.26-.32l-1.48.83ZM7128.24,7182.91v.45l2.25-1.22c-.13-.06-.19-.19-.32-.32l-1.93,1.09ZM7128.24,7183.74v.13h.58l2.18-1.28c-.13-.06-.19-.19-.32-.26l-2.44,1.41ZM7128.24,7187.27l.13.06,5.46-3.15h-.83l-4.75,2.76v.32ZM7128.24,7186.57l4.17-2.38h-.83l-3.34,1.93v.45ZM7128.24,7185.8l2.76-1.6h-.77l-1.99,1.16v.45ZM7128.24,7184.96l1.41-.77h-.83l-.58.32v.45ZM7130.74,7189.01c-.9-.32-1.73-.77-2.5-1.28v1.28h2.5ZM7129.01,7187.79l6.16-3.6h-.77l-5.78,3.34c.13.06.26.19.39.26ZM7129.72,7188.17l6.87-3.98h-.83l-6.48,3.72c.13.06.32.19.45.26ZM7130.17,7183.87l1.48-.83c-.13-.06-.26-.19-.38-.26l-1.86,1.09h.77ZM7137.93,7184.19h-.77l-7.13,4.11c.13.06.32.19.45.26l7.45-4.37ZM7131.58,7183.87l.77-.45c-.13-.06-.26-.19-.39-.26l-1.22.71h.83ZM7139.35,7184.19h-.83l-7.7,4.49c.13.06.26.13.45.19l8.09-4.69ZM7140.69,7184.19h-.77l-8.28,4.81h.77l8.28-4.81ZM7132.99,7183.87l.19-.13c-.19-.06-.39-.13-.51-.19l-.51.32h.83ZM7132.8,7189.33l.32.13.19-.13h-.51ZM7138.7,7163.33c-.96-.19-1.86-.32-2.89-.32s-1.93.13-2.89.32h5.78ZM7142.11,7184.19h-.83l-8.28,4.81h.83l8.28-4.81ZM7133.82,7189.33l-.26.13c.19.06.45.13.64.13l.45-.26h-.83ZM7143.39,7184.26v-.06h-.71l-8.28,4.81h.77l8.22-4.75ZM7135.17,7189.33l-.45.26c.26,0,.51.06.77.06l.51-.32h-.83ZM7143.39,7185.09v-.51l-7.64,4.43h.83l6.8-3.92ZM7136.59,7189.33l-.58.32c.32,0,.58-.06.9-.06l.51-.26h-.83ZM7143.39,7185.86v-.45l-6.23,3.6h.77l5.46-3.15ZM7137.61,7189.52c.39-.06.71-.13,1.09-.19h-.71l-.39.19ZM7143.39,7180.6l-1.8,1.03c-.96,1.03-2.18,1.86-3.59,2.25h.51l4.88-2.82v-.45ZM7143.39,7186.7v-.51l-4.88,2.82h.83l4.04-2.31ZM7143.39,7181.37l-4.3,2.5h.83l3.47-1.99v-.51ZM7143.39,7187.27v-.26l-3.47,1.99c1.22-.39,2.44-1.03,3.47-1.73ZM7143.39,7182.2l-2.89,1.67h.77l2.12-1.22v-.45ZM7140.89,7163.65c.9.32,1.73.77,2.5,1.28v-1.28h-2.5ZM7143.39,7187.72c-.77.51-1.6.96-2.5,1.28h2.5v-1.28ZM7143.39,7182.97l-1.54.9h.83l.71-.39v-.51ZM7143.39,7179.76l-.77.45c-.13.26-.32.51-.51.77l1.28-.71v-.51ZM7143.39,7178.99l-.26.13c-.06.19-.13.45-.26.64l.51-.32v-.45ZM7143.39,7178.41c0,.06-.13.19-.13.26h.13v-.26ZM7143.26,7183.87h.13v-.06l-.13.06ZM7143.39,7174.24v-.06h-.06l.06.06ZM7144.03,7165.45l3.08-1.8h-.83l-2.63,1.54c.13.06.26.19.39.26ZM7143.65,7164.81l2.05-1.16h-.77l-1.28.71v.45ZM7144.35,7163.65h-.71v.39l.71-.39ZM7143.65,7165.58v.06h.06l-.06-.06ZM7143.65,7165.96v.45l.64-.32c-.13-.06-.19-.26-.32-.32l-.32.19ZM7143.65,7166.8v.45l1.22-.71c-.13-.13-.19-.19-.32-.26l-.9.51ZM7143.65,7167.57v.45l1.73-.96-.32-.32-1.41.83ZM7143.65,7168.4v.45l2.18-1.28c-.06-.13-.19-.19-.26-.32l-1.93,1.16ZM7143.65,7169.17v.45l2.63-1.48c-.06-.13-.19-.19-.26-.32l-2.38,1.35ZM7143.65,7170.01v.45l3.08-1.8c-.06-.13-.19-.19-.26-.32l-2.82,1.67ZM7143.65,7170.78v.45l3.47-1.99c-.06-.13-.19-.19-.26-.32l-3.21,1.86ZM7143.65,7171.61v.45l3.79-2.18-.19-.39-3.59,2.12ZM7143.65,7172.38v.45l4.11-2.38c-.06-.13-.06-.19-.13-.32l-3.98,2.25ZM7143.65,7173.22v.45l4.43-2.57-.19-.39-4.24,2.5ZM7143.65,7173.99v.45l4.69-2.7c-.06-.13-.06-.26-.13-.38l-4.56,2.63ZM7143.65,7174.82v.45l4.88-2.82c-.06-.13-.06-.26-.13-.39l-4.75,2.76ZM7143.65,7175.59v.45l5.07-2.89c-.06-.13,0-.32-.06-.45l-5.01,2.89ZM7148.85,7173.41l-5.2,3.02v.45l5.26-3.02c0-.13-.06-.32-.06-.45ZM7148.97,7174.11l-5.33,3.08v.45l5.39-3.08c0-.13-.06-.32-.06-.45ZM7149.04,7174.88l-5.39,3.15v.45l5.46-3.15c0-.13-.06-.32-.06-.45ZM7149.1,7175.65l-5.46,3.15v.45l5.46-3.15v-.45ZM7149.1,7176.43l-5.46,3.21v.45l5.46-3.15v-.51ZM7149.1,7177.26l-5.46,3.15v.45l5.39-3.08c0-.19.06-.32.06-.51ZM7149.04,7178.09l-5.39,3.15v.45l5.26-3.08c0-.19.13-.32.13-.51ZM7148.85,7178.99l-5.2,3.02v.45l5.07-2.89c.06-.19.06-.39.13-.58ZM7148.65,7179.96l-5.01,2.89v.45l4.81-2.76.19-.58ZM7148.08,7181.56c.06-.19.19-.45.26-.64l-4.69,2.7v.26h.39l4.04-2.31ZM7146.28,7184.19h-.83l-1.8,1.03v.45l2.63-1.48ZM7144.87,7184.19h-.77l-.45.26v.45l1.22-.71ZM7149.17,7184.45l-5.52,3.21v.45l5.52-3.15v-.51ZM7145.57,7185.41l.77-.96-2.7,1.6v.45l1.93-1.09ZM7149.17,7185.28l-5.52,3.15v.45l5.52-3.15v-.45ZM7143.65,7187.08c.39-.26.77-.51,1.09-.83l-1.09.58v.26ZM7149.17,7186.57v-.51l-5.07,2.95h.77l4.3-2.44ZM7144.61,7165.9l3.85-2.25h-.77l-3.4,1.99c.13.06.19.19.32.26ZM7147.56,7182.65c.13-.19.19-.45.32-.64l-3.27,1.86h.83l2.12-1.22ZM7148.2,7184.19l-2.38,1.35c-.39.45-.77.83-1.22,1.22l4.43-2.57h-.83ZM7145.19,7166.41l3.98-2.31v-.45h-.13l-4.17,2.44c.13.06.19.19.32.32ZM7145.64,7166.86l3.53-1.99v-.45l-3.79,2.18.26.26ZM7149.17,7187.34v-.45l-3.72,2.12h.83l2.89-1.67ZM7146.15,7167.44l3.02-1.73v-.51l-3.27,1.93c.06.13.19.19.26.32ZM7146.79,7183.87c.19-.26.32-.45.45-.71l-1.22.71h.77ZM7146.6,7167.95l2.57-1.48v-.45l-2.82,1.6c.06.13.19.19.26.32ZM7146.98,7184.19c-.19.26-.38.45-.58.71l1.22-.71h-.64ZM7146.98,7168.53l2.18-1.22v-.51l-2.38,1.41c.06.13.13.19.19.32ZM7149.17,7188.17v-.51l-2.31,1.35h.77l1.54-.83ZM7147.37,7169.11l1.8-1.03v-.45l-1.99,1.16c.06.13.13.19.19.32ZM7149.17,7182.84l-1.8,1.03h.83l.96-.51v-.51ZM7149.17,7182.07l-1.35.77c-.13.26-.26.45-.39.71l1.73-1.03v-.45ZM7147.75,7169.68l1.41-.77v-.51l-1.6.96c.06.13.13.19.19.32ZM7148.08,7170.33l1.09-.64v-.45l-1.28.71.19.39ZM7149.17,7181.24l-.83.45c-.06.19-.13.45-.26.64l1.09-.58v-.51ZM7148.33,7170.97l.83-.45v-.51l-.96.58c.06.13.06.26.13.39ZM7149.17,7188.94v-.45l-.96.51h.83l.13-.06ZM7148.59,7171.61l.58-.32v-.45l-.71.39c.06.13.06.26.13.39ZM7149.17,7180.47l-.45.19c-.06.19-.13.45-.19.64l.64-.39v-.45ZM7148.85,7172.25l.32-.13v-.51l-.45.26c.06.13.06.26.13.39ZM7148.78,7183.87h.38v-.19l-.38.19ZM7149.04,7172.96l.13-.06v-.45l-.26.13c.06.13.06.26.13.38ZM7149.17,7179.63l-.13.06c-.06.19-.06.38-.13.58l.26-.13v-.51ZM7149.17,7173.34v-.13l-.06.06c0,.06.06,0,.06.06Z"/>
  <path class="st0" d="M7175.93,7198.76v-9.56h-3.4c-1.28.39-2.7.64-4.17.64s-2.89-.26-4.17-.64h-3.4v3.1h-.26v-3.1h-4.94l-.58.58v8.99h-.26v-8.67l-1.6,1.6-.26-.26,1.86-1.8v-.45h-4.04v-.26h4.04v-20.29h-2.44v-.26h2.44v-4.88h-2.44v-.26h2.44v-11.81h.26v11.81h5.52v-14.32h.26v14.32h3.4c.39-.13.83-.32,1.22-.39h-2.57v-.26h12.33v.26h-3.85c.38.06.83.26,1.22.39h3.4v-14.12h.26v14.12h5.33v.26h-5.33v1.54c.58.45,1.16.9,1.67,1.41l2.12-2.12.26.26-2.12,2.12c.51.51.96,1.09,1.41,1.67h.32v.26h-.13c1.41,2.18,2.25,4.81,2.25,7.57,0,4.62-2.31,8.73-5.78,11.17v1.54h4.11v.26h-4.11v9.56h-.26ZM7159.63,7163.52l-4.62,2.7v.45l5.39-3.15h-.77ZM7158.22,7163.52l-3.21,1.86v.45l4.04-2.31h-.83ZM7156.8,7163.52l-1.8,1.09v.45l2.63-1.54h-.83ZM7155.46,7163.52l-.45.26v.45l1.22-.71h-.77ZM7160.53,7164.29v-.45l-5.52,3.15v.45l5.52-3.15ZM7160.34,7165.19c.06-.06.13-.06.19-.13v-.45l-5.52,3.21v.45l5.33-3.08ZM7156.93,7168.79l.06-.13h-.71l-1.28.77v.45l1.93-1.09ZM7155.71,7168.66h-.71v.39l.71-.39ZM7156.23,7170.01c.13-.26.26-.45.39-.71l-1.6.9v.45l1.22-.64ZM7155.71,7171.1c.06-.19.13-.45.26-.64l-.96.58v.45l.71-.39ZM7155.33,7172.12c.06-.19.19-.45.26-.64l-.58.32v.45l.32-.13ZM7155.07,7173.02c.06-.19.13-.32.19-.51l-.26.13v.45l.06-.06ZM7160.53,7173.15v-.51l-5.46,3.21c0,.13-.06.26-.06.39l.06.06,5.46-3.15ZM7155.01,7179.19v.32l.13-.06c0-.06-.13-.19-.13-.26ZM7155.2,7179.76l-.19.06v.45l.26-.13c-.06-.13,0-.26-.06-.39ZM7155.39,7180.47l-.39.19v.45l.51-.26c-.06-.13-.06-.26-.13-.39ZM7155.59,7181.11l-.58.32v.45l.77-.38-.19-.39ZM7155.91,7181.75l-.9.51v.45l1.03-.58c-.06-.13-.06-.26-.13-.38ZM7156.16,7182.39l-1.16.64v.45l1.35-.77c-.06-.13-.13-.19-.19-.32ZM7156.48,7182.97l-1.48.9v.45l1.73-.96c-.06-.13-.19-.26-.26-.39ZM7156.87,7183.61l-1.86,1.03v.45l2.12-1.16c-.06-.13-.19-.19-.26-.32ZM7157.25,7184.19l-2.25,1.28v.45l2.5-1.41c-.06-.13-.19-.19-.26-.32ZM7157.7,7184.71l-2.7,1.54v.45l2.95-1.67c-.06-.13-.19-.19-.26-.32ZM7158.15,7185.28l-3.15,1.8v.45l3.4-1.99c-.06-.13-.19-.13-.26-.26ZM7158.54,7185.86l-3.53,1.99v.45l2.38-1.35,1.16-1.09ZM7155.52,7188.88l1.09-1.16-1.6.96v.26h.39l.13-.06ZM7155.01,7189.33l.13-.13h-.13v.13ZM7160.53,7172.32v-.45l-5.46,3.15v.45l5.46-3.15ZM7160.53,7173.92v-.45l-5.46,3.15v.45l5.46-3.15ZM7160.53,7174.76v-.51l-5.46,3.15c0,.13.06.32.06.45l5.39-3.08ZM7160.53,7171.55v-.51l-5.33,3.08c0,.19-.06.32-.06.51l5.39-3.08ZM7160.53,7175.53v-.45l-5.33,3.08c0,.13.06.32.06.45l5.26-3.08ZM7160.53,7170.71v-.45l-5.14,2.95c-.06.19-.06.32-.13.51l5.26-3.02ZM7160.53,7176.36v-.51l-5.2,3.02c0,.13,0,.32.06.45l5.14-2.95ZM7158.02,7167.37c.32-.39.64-.77.96-1.09l-3.53,2.12h.77l1.8-1.03ZM7160.53,7169.94v-.51l-4.88,2.82-.19.58,5.07-2.89ZM7160.53,7177.13v-.45l-5.07,2.89c.06.13.06.32.13.45l4.94-2.89ZM7160.53,7177.97v-.51l-4.88,2.82c.06.13.06.26.13.39l4.75-2.7ZM7160.53,7169.11v-.45h-.06l-4.49,2.57c-.06.19-.13.45-.19.64l4.75-2.76ZM7160.53,7178.74v-.45l-4.62,2.63c.06.13.06.26.13.39l4.49-2.57ZM7159.69,7186.76l-3.72,2.18h.83l3.21-1.93c-.13-.06-.19-.19-.32-.26ZM7159.05,7168.66l-2.57,1.48c-.13.19-.19.51-.32.71l3.72-2.18h-.83ZM7160.53,7179.57v-.51l-4.37,2.57c.06.13.13.19.19.32l4.17-2.38ZM7160.53,7180.34v-.45l-4.04,2.31.19.39,3.85-2.25ZM7159.12,7186.31l-1.41.83-1.16,1.09,2.89-1.67c-.13-.06-.19-.19-.32-.26ZM7157.64,7168.66l-.45.32c-.13.26-.32.45-.45.71l1.73-1.03h-.83ZM7157.19,7168.4c.06-.13.19-.32.32-.45l-.71.45h.38ZM7160.53,7181.18v-.51l-3.72,2.18c.06.13.13.19.19.32l3.53-1.99ZM7160.53,7181.95v-.45l-3.4,1.93c.06.13.19.19.26.32l3.15-1.8ZM7160.53,7187.4c-.06-.06-.19-.13-.26-.19l-2.89,1.73h.83l2.31-1.35v-.19ZM7160.53,7182.78v-.51l-2.95,1.73c.06.13.13.19.19.32l2.76-1.54ZM7160.53,7166.22l-2.25,1.28c-.26.26-.45.64-.64.9l2.89-1.67v-.51ZM7160.53,7183.55v-.45l-2.57,1.48c.06.13.19.19.26.32l2.31-1.35ZM7160.53,7167.05l-2.31,1.35h.83l1.48-.9v-.45ZM7159.31,7185.03l1.09-1.09-1.99,1.16c.06.13.26.19.32.32l.58-.39ZM7158.86,7185.99l-.39.32.45-.26-.06-.06ZM7160.53,7187.92l-1.73,1.03h.77l.96-.58v-.45ZM7160.53,7165.51c-.58.39-1.16.83-1.6,1.28l1.6-.9v-.39ZM7160.53,7185.16v-.45l-.96.51-.51.51.19.19,1.28-.77ZM7160.53,7185.99v-.51l-1.09.64c.13.06.19.19.32.26l.77-.39ZM7160.53,7167.82l-.9.58h.77l.13-.06v-.51ZM7160.53,7186.76v-.45l-.51.26c.13.06.19.26.32.32l.19-.13ZM7160.14,7188.94h.39v-.26l-.39.26ZM7160.53,7184.39v-.06l-.13.13.13-.06ZM7167.91,7163.52l-7.13,4.17v.45l7.96-4.62h-.83ZM7166.5,7163.52l-5.71,3.34v.45l6.55-3.79h-.83ZM7165.15,7163.52l-4.36,2.57v.45l5.2-3.02h-.83ZM7160.78,7164.87c.77-.51,1.6-1.03,2.5-1.35h-2.5v1.35ZM7164.25,7163.52c-.58.19-1.09.39-1.6.64l-1.86,1.09v.45l3.79-2.18h-.32ZM7165.41,7168.66h-.83l-3.79,2.25v.45l4.62-2.7ZM7163.99,7168.66h-.77l-2.44,1.41v.45l3.21-1.86ZM7162.65,7168.66h-.83l-1.03.64v.45l1.86-1.09ZM7161.23,7168.66h-.45v.26l.45-.26ZM7162.26,7171.29c.32-.39.64-.71,1.03-1.03l-2.5,1.41v.45l1.48-.83ZM7161.43,7172.57c.13-.26.26-.45.39-.71l-1.03.64v.45l.64-.38ZM7160.98,7173.66l.19-.58-.38.19v.45l.19-.06ZM7160.78,7178.35v.19h.06c0-.06-.06-.13-.06-.19ZM7160.78,7187.21c1.03.71,2.25,1.35,3.47,1.73h8.22c1.22-.39,2.44-1.03,3.47-1.73v-8.67c-1.03,3.21-4.04,5.52-7.57,5.52-2.12,0-4.04-.83-5.46-2.18l-2.12,2.12v3.21ZM7162.71,7181.69c-.83-.83-1.54-1.93-1.86-3.08v.26l-.06.06v.45h.06v.32h-.06v.45h.06v.32l-.06.06v.45h.06v.32h-.06v.45h.06v.38h-.06v1.41l1.93-1.86ZM7163.29,7188.94c-.9-.32-1.73-.83-2.5-1.35v1.35h2.5ZM7160.85,7176.23c0,1.99.77,3.85,2.05,5.2l10.72-10.66c-1.35-1.28-3.27-2.12-5.26-2.12-4.17,0-7.51,3.4-7.51,7.57ZM7169.32,7163.52l-8.35,4.88h.83l8.28-4.88h-.77ZM7170.67,7163.52l-8.28,4.88h.77l8.35-4.88h-.83ZM7163.16,7181.69c1.35,1.28,3.15,2.12,5.2,2.12,3.92,0,7.19-3.02,7.57-6.87v-1.41c-.19-1.73-.96-3.34-2.12-4.56l-10.66,10.72ZM7172.47,7163.52h-.39l-8.35,4.88h.83l8.15-4.75c-.06,0-.19-.13-.26-.13ZM7173.11,7163.78l-7.96,4.62h.83l7.57-4.43c-.13-.06-.26-.13-.45-.19ZM7165.47,7189.2c.96.19,1.86.39,2.89.39s1.93-.19,2.89-.39h-5.78ZM7165.86,7163.14l-.13.13h.77l.45-.26c-.39.06-.71.06-1.09.13ZM7166.18,7168.66h-.19l-.26.19c.13-.06.32-.13.45-.19ZM7173.88,7164.1l-7.32,4.3h.77l7-4.11c-.13-.06-.32-.13-.45-.19ZM7168.42,7162.94l-.06-.06c-.26,0-.51.06-.77.06l-.51.32h.83l.51-.32ZM7174.65,7164.48l-6.74,3.92h.83l6.29-3.66c-.13-.06-.26-.19-.39-.26ZM7169.71,7163.01c-.26,0-.45-.06-.71-.06l-.51.32h.77l.45-.26ZM7175.36,7164.87l-6.03,3.53h.77l5.65-3.27c-.13-.06-.26-.19-.39-.26ZM7170.8,7163.14c-.19-.06-.39-.13-.58-.13l-.39.26h.83l.13-.13ZM7170.61,7168.66c.06,0,.13.13.19.13l.13-.13h-.32ZM7175.93,7165.32l-5.26,3.08h.83l4.43-2.57v-.51ZM7171.51,7168.66l-.32.19c.13.06.32.19.45.26l.71-.45h-.83ZM7172.92,7168.66l-.96.58c.13.06.32.13.45.19l1.28-.77h-.77ZM7175.93,7166.15l-3.85,2.25h.77l3.08-1.8v-.45ZM7174.27,7168.66l-1.6.96c.13.06.26.19.39.26l2.05-1.22h-.83ZM7174.59,7169.81l1.09-1.16-2.38,1.41c.13.06.19.19.32.26l.96-.51ZM7173.43,7163.52c.9.32,1.73.83,2.5,1.35v-1.35h-2.5ZM7175.93,7166.92l-2.5,1.48h.83l1.67-.96v-.51ZM7175.93,7187.59c-.77.51-1.6,1.03-2.5,1.35h2.5v-1.35ZM7175.68,7169.17l-.83.77-.77.83c.83.9,1.48,1.99,1.86,3.15v-5.01l-.32.26h.06ZM7175.93,7167.76l-1.09.64h.83l.26-.19v-.45ZM7176.19,7165.51v.13l.13-.06c-.06,0-.06-.06-.13-.06ZM7176.58,7165.77l-.39.19v.45l.71-.39c-.13-.06-.19-.19-.32-.26ZM7177.15,7166.22l-.96.58v.45l1.28-.71c-.13-.13-.19-.26-.32-.32ZM7177.6,7166.8l-1.41.77v.45l.26-.13,1.16-1.09ZM7176.19,7175.53c0,.26.06.45.06.71s-.06.45-.06.71v10.01c3.34-2.44,5.52-6.29,5.52-10.72,0-2.82-.9-5.46-2.38-7.57h-3.15v6.87ZM7179.08,7168.4c-.39-.51-.77-1.03-1.22-1.48l-.32.32h.06l-.83.83-.32.32h2.63Z"/>
  <path class="st0" d="M7122.63,7149.14h-4.75v6.42h4.75v.26h-4.75v26.32h4.88v.39h-4.88v6.42h6.16v.26h-6.16v.45l1.67,1.67-.26.26-1.41-1.48v8.67h-.39v-8.99l-.51-.58h-6.55v.39h1.16v.26h-1.16v8.92h-.26v-8.92h-26.32v8.92h-.39v-8.92h-.45v-.26h.45v-.39h-6.48l-.58.58v69.39h-.26v-69.07l-2.89,2.89-.26-.26,3.15-3.08v-.45h-3.59v-.26h3.59v-6.42h-3.59v-.39h3.59v-26.32h-4.3v-.26h4.3v-6.42h-4.3v-.38h4.3v-.39l-2.95-2.89.26-.26,2.7,2.7v-8.09h.26v8.41l.58.51h6.48v-.26h-.45v-.39h.45v-8.28h.39v8.28h26.32v-8.28h.26v8.28h1.16v.39h-1.16v.26h6.55l.51-.51v-8.41h.39v8.09l2.63-2.7.26.26-2.89,2.89v.39h4.75v.38ZM7076.53,7148.76l-.13-.06v.06h.13ZM7081.09,7155.56c.32-.38.64-.77,1.03-1.16l-5.26-5.26h-.45v6.42h4.69ZM7076.41,7165.32c.64-3.53,2.18-6.8,4.37-9.5h-4.37v9.5ZM7083.47,7165.38v-.45l-7.06,4.11c0,.13.06.32.06.45l7-4.11ZM7080.77,7182.14c-2.18-2.7-3.72-5.91-4.37-9.44v9.44h4.37ZM7076.86,7188.94l5.26-5.33c-.39-.39-.71-.71-1.03-1.09h-4.69v6.42h.45ZM7076.41,7189.33l.13-.13h-.13v.13ZM7083.47,7163.78v-.45l-7,4.04v.51l7-4.11ZM7083.47,7164.61v-.45l-7,4.04v.51l7-4.11ZM7083.47,7166.22v-.45l-7,4.04v.45l7-4.04ZM7083.47,7166.99v-.45l-7,4.04c0,.13.06.32.06.45l6.93-4.04ZM7083.47,7163.01v-.45l-6.87,3.98c0,.19-.06.32-.06.51l6.93-4.04ZM7083.47,7167.82v-.45l-6.87,3.98v.45l6.87-3.98ZM7083.47,7162.17v-.45l-6.74,3.92c0,.19-.06.32-.06.51l6.8-3.98ZM7083.47,7168.59v-.45l-6.8,3.98c0,.13.06.26.06.39l6.74-3.92ZM7083.47,7161.4v-.45l-6.61,3.79c-.06.19,0,.39-.06.58l6.68-3.92ZM7083.47,7169.43v-.45l-6.68,3.85c0,.13.06.32.06.45l6.61-3.85ZM7083.47,7170.2v-.45l-6.55,3.79c0,.13.06.32.13.45l6.42-3.79ZM7083.47,7160.57v-.45l-6.36,3.72c-.06.19-.06.32-.13.51l6.48-3.79ZM7083.47,7171.03v-.45l-6.36,3.66c.06.13.06.32.13.45l6.23-3.66ZM7083.47,7159.8v-.45l-6.1,3.53-.19.58,6.29-3.66ZM7077.31,7149.14l5.01,5.01c.39-.39.77-.71,1.16-1.03v-3.98h-6.16ZM7083.47,7171.8v-.45l-6.16,3.59c.06.13.06.26.13.39l6.03-3.53ZM7083.47,7184.9c-.39-.32-.77-.64-1.16-1.03l-5.01,5.07h6.16v-4.04ZM7083.47,7158.96v-.45l-5.78,3.34c-.06.19-.13.45-.19.64l5.97-3.53ZM7083.47,7172.64v-.45l-5.97,3.47.19.39,5.78-3.4ZM7083.47,7173.41v-.45l-5.71,3.34.19.39,5.52-3.27ZM7083.47,7158.19v-.45l-5.33,3.08c-.06.19-.19.45-.26.64l5.58-3.27ZM7083.47,7174.24v-.45l-5.46,3.15.19.39,5.26-3.08ZM7083.47,7157.36v-.45l-4.81,2.82c-.13.19-.19.45-.32.64l5.14-3.02ZM7083.47,7175.01v-.45l-5.14,3.02c.06.13.06.26.13.39l5.01-2.95ZM7083.47,7175.85v-.45l-4.88,2.82c.06.13.13.19.19.32l4.69-2.7ZM7083.47,7156.59v-.45l-4.17,2.44c-.13.26-.26.39-.39.64l4.56-2.63ZM7083.47,7176.62v-.45l-4.56,2.63.19.39,4.37-2.57ZM7083.47,7177.45v-.45l-4.17,2.44c.06.13.13.19.19.32l3.98-2.31ZM7082.57,7155.82l-2.44,1.48c-.19.26-.32.45-.51.71l3.79-2.18h-.83ZM7083.47,7178.22v-.45l-3.85,2.25c.06.13.19.19.26.32l3.6-2.12ZM7083.47,7179.06v-.45l-3.47,1.99c.06.13.19.19.26.32l3.21-1.86ZM7083.47,7179.83v-.45l-3.02,1.8c.06.13.13.19.19.32l2.82-1.67ZM7081.22,7155.82c-.26.26-.51.64-.71.9l1.48-.9h-.77ZM7083.47,7180.66v-.45l-2.63,1.54c.06.13.19.19.26.32l2.38-1.41ZM7083.47,7181.43v-.45l-1.99,1.16h.77l1.22-.71ZM7081.48,7182.52l.06.06.19-.06h-.26ZM7083.02,7155.24l-.32-.26-.96.58h.83l.45-.32ZM7082.31,7182.52l-.58.26c.06.13.26.19.32.32l1.03-.58h-.77ZM7082.31,7154.6c-.19.19-.32.39-.51.58l.71-.45-.19-.13ZM7082.31,7183.42l.39-.39-.45.26c0,.06.06.06.06.13ZM7083.47,7154.15v-.45l-.58.39-.32.32.19.19.71-.45ZM7083.47,7183.04v-.32l-.77.83.77-.51ZM7083.47,7183.87v-.45l-.71.39c.13.13.19.26.32.32l.39-.26ZM7083.47,7182.14v-.32l-.64.32h.64ZM7083.47,7154.98v-.45l-.45.26.26.32.19-.13ZM7083.28,7155.56l-.06-.06-.06.06h.13ZM7083.47,7184.51v-.32l-.19.13.19.19ZM7091.81,7148.76c.51-.13.96-.19,1.48-.26h-9.44v.26h7.96ZM7083.85,7152.8c1.99-1.67,4.3-2.89,6.87-3.66h-6.87v3.66ZM7095.02,7149.14h-.83l-10.33,5.97v.45h.06l11.11-6.42ZM7092.84,7149.14l-8.99,5.2v.45l9.76-5.65h-.77ZM7091.88,7149.14c-.26.06-.58.13-.83.19l-7.19,4.17v.51l8.41-4.88h-.39ZM7084.05,7156.27l-.19-.19v.32l.19-.13ZM7084.56,7156.78l-.32-.26-.38.19v.51l.71-.45ZM7085.07,7157.3l-.32-.32-.9.58v.45l1.22-.71ZM7085.52,7157.81l-.26-.32-1.41.83v.51l1.67-1.03ZM7086.04,7158.32l-.26-.32-1.93,1.16v.45l2.18-1.28ZM7086.55,7158.84l-.26-.32-2.44,1.41v.51l2.7-1.6ZM7087.06,7159.35c-.13-.13-.13-.19-.26-.32l-2.95,1.73v.45l3.21-1.86ZM7086.61,7160.38c.26-.26.45-.51.71-.77l-.06-.06-3.4,1.99v.51l2.76-1.67ZM7087.58,7159.8c-2.31,2.38-3.72,5.65-3.72,9.24s1.41,6.8,3.72,9.18l9.18-9.18-9.18-9.24ZM7085.59,7161.79c.19-.26.32-.51.51-.77l-2.25,1.35v.45l1.73-1.03ZM7084.94,7163.01c.13-.26.19-.51.32-.71l-1.41.83v.51l1.09-.64ZM7084.43,7164.1c.06-.19.19-.45.26-.64l-.83.51v.45l.58-.32ZM7084.11,7165.06l.19-.58-.45.26v.51l.26-.19ZM7083.98,7165.45l-.13.13v.45c.06-.19.06-.39.13-.58ZM7083.85,7172v.45l.06-.06c-.06-.13-.06-.26-.06-.39ZM7083.98,7172.7l-.13.06v.51l.26-.19c-.06-.13-.06-.26-.13-.39ZM7084.24,7173.34l-.38.26v.45l.51-.32c-.06-.13-.06-.26-.13-.39ZM7084.43,7173.99l-.58.39v.51l.77-.51-.19-.39ZM7084.75,7174.63l-.9.58v.45l1.09-.64-.19-.38ZM7085.07,7175.27l-1.22.71v.51l1.41-.83-.19-.39ZM7085.39,7175.91l-1.54.9v.45l1.73-1.03c-.06-.13-.13-.19-.19-.32ZM7085.78,7176.49l-1.93,1.09v.51l2.12-1.28c-.06-.13-.13-.19-.19-.32ZM7086.16,7177.07l-2.31,1.35v.45l2.57-1.48c-.06-.13-.19-.19-.26-.32ZM7086.61,7177.58l-2.76,1.6v.51l3.02-1.8c-.06-.13-.19-.19-.26-.32ZM7087.32,7178.41c-.06-.13-.19-.13-.26-.26l-3.21,1.86v.45l3.47-1.99v-.06ZM7086.55,7179.25l-2.7,1.54v.51l1.54-.96,1.16-1.09ZM7083.85,7181.62v.32l.77-.77-.77.45ZM7088.67,7182.52h-.83l-3.98,2.31c.13.06.19.19.32.26l4.49-2.57ZM7087.26,7182.52h-.77l-2.63,1.48v.51l3.4-1.99ZM7085.91,7182.52h-.83l-1.22.71v.45l2.05-1.16ZM7084.49,7182.52h-.64v.39l.64-.39ZM7090.72,7188.94c-2.57-.77-4.88-2.05-6.87-3.72v3.72h6.87ZM7083.85,7189.58h9.44c-.51-.06-.96-.26-1.48-.39h-7.96v.39ZM7084.05,7153.06l5.58-3.21c-2.05.77-3.92,1.86-5.58,3.21ZM7084.75,7155.82h-.71l.26.32.45-.32ZM7088.99,7179.89c-.13-.06-.19-.19-.32-.26l-4.43,2.5h.83l3.92-2.25ZM7090.02,7182.52h-.77l-4.81,2.76c.13.06.19.19.32.26l5.26-3.02ZM7096.43,7149.14h-.83l-11.11,6.42h.83l11.11-6.42ZM7086.16,7155.82h-.83l-.83.51.32.32,1.35-.83ZM7088.09,7179.12l-2.38,1.41-1.16,1.09,3.85-2.18c-.13-.06-.19-.26-.32-.32ZM7087.51,7155.82h-.77c-.58.32-1.16.71-1.73,1.03l.32.26,2.18-1.28ZM7091.43,7182.52h-.83l-5.58,3.21c.13.06.26.19.39.26l6.03-3.47ZM7088.92,7155.82h-.83l-2.57,1.54.32.26,3.08-1.8ZM7089.63,7180.34c-.13-.06-.26-.19-.39-.26l-3.59,2.05h.77l3.21-1.8ZM7092.78,7182.52h-.77l-6.35,3.66.38.19,6.74-3.85ZM7097.78,7149.14h-.77l-11.11,6.42h.83l11.04-6.42ZM7090.34,7155.82h-.83l-3.47,2.05.32.26,3.98-2.31ZM7094.19,7182.52h-.83l-7,4.04c.13.06.26.19.39.26l7.45-4.3ZM7087.58,7178.67l-1.09,1.09,1.35-.83c-.13-.06-.13-.19-.26-.26ZM7091.68,7155.82h-.77l-4.37,2.57.32.26,4.81-2.82ZM7090.34,7180.73c-.13-.06-.32-.19-.45-.26l-2.89,1.67h.83l2.5-1.41ZM7095.6,7182.52h-.83l-7.77,4.43c.13.06.32.19.45.26l8.15-4.69ZM7088.6,7158.45c1.03-.83,2.18-1.48,3.4-1.99l1.09-.64h-.83l-5.2,3.08.32.26,1.22-.71ZM7099.2,7149.14h-.83l-11.04,6.42h.77l11.11-6.42ZM7106.19,7159.61c-2.38-2.31-5.65-3.79-9.24-3.79s-6.8,1.48-9.18,3.79l9.18,9.18,9.24-9.18ZM7087.77,7178.41c2.38,2.31,5.58,3.72,9.18,3.72s6.87-1.41,9.24-3.72l-9.24-9.18-9.18,9.18ZM7096.95,7182.52h-.77l-8.41,4.81c.13.06.26.19.39.26l8.79-5.07ZM7091.04,7181.11c-.13-.06-.32-.13-.45-.19l-2.18,1.22h.77l1.86-1.03ZM7098.36,7182.52h-.83l-9.05,5.2c.13.06.39.13.51.19l9.37-5.39ZM7100.54,7149.14h-.77l-11.11,6.42h.83l11.04-6.42ZM7099.71,7182.52h-.77l-9.63,5.52c.13.06.26.13.45.19l9.95-5.71ZM7091.81,7181.43c-.13-.06-.32-.13-.45-.19l-1.6.9h.83l1.22-.71ZM7101.96,7149.14h-.83l-11.04,6.42h.77l11.11-6.42ZM7101.12,7182.52h-.83l-10.14,5.84c.19.06.32.13.51.19l10.46-6.03ZM7102.53,7182.52h-.83l-10.66,6.16c.19.06.32.06.51.13l10.98-6.29ZM7092.65,7181.75c-.19-.06-.32-.06-.51-.13l-.96.51h.83l.64-.38ZM7102.92,7149.34c-.19-.06-.32-.06-.51-.13l-10.98,6.35h.83l10.66-6.23ZM7103.88,7182.52h-.77l-11.11,6.42h.77l11.11-6.42ZM7093.55,7182.07c-.19-.06-.32-.13-.51-.19l-.45.26h.77l.19-.06ZM7103.82,7149.66c-.19-.06-.32-.13-.51-.19l-10.46,6.1h.77l10.21-5.91ZM7094.06,7155.82h-.39l-.32.19c.19-.06.45-.13.71-.19ZM7105.29,7182.52h-.83l-11.11,6.42h.83l11.11-6.42ZM7093.35,7189.2c.06,0,.13.06.19.06l.06-.06h-.26ZM7094.19,7189.2l-.19.13c.19,0,.51.13.71.13l.32-.26h-.83ZM7094.19,7148.76l.32-.13c-.39.06-.32.13-.32.13ZM7104.65,7149.98c-.13-.06-.26-.13-.45-.19l-10.01,5.78h.83l9.63-5.58ZM7095.22,7148.56l-.45.19h.83l.51-.26c-.32,0-.58.06-.9.06ZM7106.64,7182.52h-.77l-11.11,6.42h.83l11.04-6.42ZM7095.6,7189.2l-.45.26c.26,0,.51.06.77.06l.51-.32h-.83ZM7105.42,7150.3c-.13-.06-.32-.13-.45-.19l-9.37,5.46h.83l8.99-5.26ZM7096.95,7148.5h-.26l-.51.26h.77l.58-.26h-.58ZM7108.05,7182.52h-.83l-11.04,6.42h.77l11.11-6.42ZM7097.01,7189.2l-.58.32c.19,0,.32.06.51.06.06,0,.26-.06.32-.06l.51-.32h-.77ZM7106.19,7150.68c-.13-.06-.32-.19-.45-.26l-8.73,5.14h.77l8.41-4.88ZM7106.39,7178.22c2.31-2.38,3.79-5.58,3.79-9.18s-1.48-6.87-3.79-9.24l-9.18,9.24,9.18,9.18ZM7098.04,7148.5l-.51.26h.83l.39-.19c-.26,0-.45-.06-.71-.06ZM7109.47,7182.52h-.83l-11.11,6.42h.83l11.11-6.42ZM7098.36,7189.2l-.51.32c.32,0,.58-.06.9-.06l.45-.26h-.83ZM7106.96,7151.07c-.13-.06-.32-.19-.45-.26l-8.15,4.75h.83l7.77-4.49ZM7099.26,7148.56l-.32.19h.77l.19-.06c-.19,0-.45-.13-.64-.13ZM7110.17,7182.91v-.39h-.19l-11.04,6.42h.77l10.46-6.03ZM7099.77,7189.2l-.32.19c.39-.06.71-.06,1.09-.13v-.06h-.77ZM7107.6,7151.45c-.13-.06-.26-.19-.39-.26l-7.45,4.37h.77l7.06-4.11ZM7099.9,7155.82l.06.06.06-.06h-.13ZM7099.9,7182.14h.39l.26-.13c-.19.06-.45.06-.64.13ZM7110.17,7183.68v-.45l-9.89,5.71h.83l9.05-5.26ZM7100.61,7155.82l-.19.13c.19.06.32.13.51.19l.45-.32h-.77ZM7110.17,7148.5h-9.5c.51.06.96.13,1.48.26h8.02v-.26ZM7102.15,7189.2c-.51.13-.96.32-1.48.39h9.5v-.39h-8.02ZM7106.58,7178.86l-1.22.71c-1.03.83-2.18,1.48-3.4,1.99l-1.09.58h.83l5.2-3.02-.32-.26ZM7108.31,7151.84l-.39-.19-6.8,3.92h.83l6.35-3.72ZM7101.96,7155.82l-.64.45c.19.06.32.06.51.13l.96-.58h-.83ZM7110.17,7184.51v-.51l-8.47,4.94h.39c.26-.06.58-.19.83-.26l7.25-4.17ZM7103.37,7155.82c-.39.26-.83.45-1.22.71.13.06.32.19.45.26l1.54-.96h-.77ZM7107.09,7179.38l-4.81,2.76h.77l4.37-2.5-.32-.26ZM7108.95,7152.29c-.13-.06-.26-.19-.39-.26l-6.03,3.53h.83l5.58-3.27ZM7104.72,7155.82l-1.8,1.09c.13.06.32.13.45.19.71-.45,1.48-.83,2.18-1.28h-.83ZM7103.24,7149.14c2.57.77,4.94,1.99,6.93,3.66v-3.66h-6.93ZM7110.17,7185.22c-1.99,1.67-4.37,2.95-6.93,3.72h6.93v-3.72ZM7106.13,7155.82l-2.5,1.48c.13.06.32.19.45.26l2.89-1.73h-.83ZM7107.6,7179.89l-3.98,2.25h.83l3.47-1.99-.32-.26ZM7109.53,7152.74c-.13-.06-.26-.19-.39-.26l-5.2,3.08h.77l4.81-2.82ZM7109.98,7184.9l-5.71,3.34c2.05-.77,4.04-1.93,5.71-3.34ZM7107.54,7155.82l-3.21,1.86c.13.06.26.19.39.26l3.59-2.12h-.77ZM7108.89,7155.82l-3.92,2.31c.13.06.19.19.32.26l4.43-2.57h-.83ZM7108.12,7180.41l-3.08,1.73h.77l2.63-1.48-.32-.26ZM7110.11,7153.19c-.13-.06-.19-.19-.32-.26l-4.49,2.63h.83l3.98-2.38ZM7108.31,7157.49l1.09-1.09-3.85,2.18c.13.06.19.26.32.32l2.44-1.41ZM7106.39,7159.35l1.09-1.09-1.41.83c.13.06.19.13.32.26ZM7108.63,7180.85l-2.25,1.28h.83l1.73-.96-.32-.32ZM7110.17,7158v-.45l-3.53,1.99v.06c.06.06.19.13.26.26l3.27-1.86ZM7110.17,7175.98l-2.82,1.6c-.26.26-.45.58-.71.83v.06l3.53-1.99v-.51ZM7110.17,7154.02v-.51l-3.47,2.05h.77l2.7-1.54ZM7110.17,7176.81l-3.27,1.86.26.32,3.02-1.73v-.45ZM7110.17,7158.84v-.51l-3.08,1.8c.06.13.19.19.26.32l2.82-1.6ZM7110.17,7177.58l-2.76,1.6.26.32,2.5-1.41v-.51ZM7110.17,7157.23v-.51l-1.6.96-1.09,1.09,2.7-1.54ZM7110.17,7159.61v-.45l-2.63,1.48c.06.13.19.19.26.32l2.38-1.35ZM7109.15,7181.37l-1.35.77h.83l.77-.45-.26-.32ZM7110.17,7175.21l-1.8,1.03c-.19.26-.32.51-.51.77l2.31-1.35v-.45ZM7110.17,7178.41l-2.25,1.28.26.32,1.99-1.16v-.45ZM7110.17,7160.44v-.51l-2.18,1.28c.06.13.13.19.19.32l1.99-1.09ZM7110.17,7154.79v-.45l-2.12,1.22h.83l1.28-.77ZM7110.17,7161.21v-.45l-1.8,1.03c.06.13.13.19.19.32l1.6-.9ZM7110.17,7179.19l-1.73,1.03.26.32,1.48-.83v-.51ZM7110.17,7162.05v-.51l-1.48.83.19.39,1.28-.71ZM7110.17,7174.37l-1.16.64c-.13.26-.19.51-.32.71l1.48-.83v-.51ZM7110.17,7180.02l-1.28.71.32.32.96-.58v-.45ZM7110.17,7162.82v-.45l-1.16.64c.06.13.13.19.19.32l.96-.51ZM7109.21,7182.14h.71l-.26-.26-.45.26ZM7110.17,7173.6l-.64.32c-.06.19-.19.45-.26.64l.9-.51v-.45ZM7110.17,7156.4v-.32l-.83.77.83-.45ZM7110.17,7163.65v-.51l-.83.51c.06.13.06.19.13.32l.71-.32ZM7110.17,7180.79l-.77.45.32.26.45-.19v-.51ZM7110.17,7155.56v-.45l-.71.45h.71ZM7110.17,7164.42v-.45l-.58.32c.06.13.06.26.13.39l.45-.26ZM7110.17,7172.77l-.32.19-.19.58.51-.26v-.51ZM7110.17,7165.26v-.51l-.32.19c.06.13.06.26.13.39l.19-.06ZM7109.92,7181.75l.26.19v-.32l-.26.13ZM7110.17,7172h-.06c-.06.19-.06.32-.13.51l.19-.06v-.45ZM7110.17,7166.03v-.45l-.13.06c.06.13.06.26.06.39h.06ZM7110.43,7149.14v3.98c.38.32.77.64,1.16,1.03l5.07-5.01h-6.23ZM7110.43,7153.51v.32l.26-.13c-.06-.06-.19-.13-.26-.19ZM7110.88,7153.89l-.45.26v.45l.77-.39c-.13-.13-.19-.26-.32-.32ZM7110.43,7154.92v.38l.9-.83-.9.45ZM7111.65,7155.82l-1.22.71v.51l2.05-1.22h-.83ZM7110.43,7155.82v.39c.19-.13.45-.26.64-.39h-.64ZM7112.87,7155.95l-2.44,1.41v.45l2.7-1.54c-.06-.13-.19-.19-.26-.32ZM7113.32,7156.52l-2.89,1.6v.51l3.08-1.8c-.06-.13-.13-.19-.19-.32ZM7113.7,7157.1l-3.27,1.86v.45l3.53-1.99c-.06-.13-.19-.19-.26-.32ZM7114.09,7157.68l-3.66,2.05v.51l3.92-2.25c-.06-.13-.19-.19-.26-.32ZM7114.47,7158.26l-4.04,2.31v.45l4.24-2.44c-.06-.13-.13-.19-.19-.32ZM7114.86,7158.84l-4.43,2.5v.51l4.62-2.63-.19-.39ZM7115.18,7159.48l-4.75,2.7v.45l4.94-2.82c-.06-.13-.13-.19-.19-.32ZM7115.5,7160.06l-5.07,2.89v.51l5.2-3.02c-.06-.13-.06-.26-.13-.39ZM7115.76,7160.7l-5.33,3.08v.45l5.52-3.15-.19-.39ZM7116.01,7161.34l-5.58,3.21v.51l5.78-3.34-.19-.39ZM7116.27,7161.98l-5.84,3.4v.45l6.03-3.47-.19-.39ZM7116.53,7162.69l-6.1,3.47v.51l6.23-3.59c-.06-.13-.06-.26-.13-.39ZM7116.72,7163.33l-6.29,3.66v.45l6.42-3.66c-.06-.13-.06-.32-.13-.45ZM7116.91,7164.04l-6.48,3.72v.51l6.61-3.79c0-.13-.06-.32-.13-.45ZM7117.11,7164.74l-6.68,3.85v.45l6.74-3.85c0-.13-.06-.32-.06-.45ZM7117.23,7165.45l-6.8,3.92v.51l6.87-3.98c0-.13-.06-.32-.06-.45ZM7117.36,7166.22l-6.93,3.98v.45l6.93-3.98v-.45ZM7117.43,7166.99l-7,3.98v.51l7.06-4.04c0-.13-.06-.32-.06-.45ZM7117.49,7167.76l-7.06,4.04v.45l7.06-4.04v-.45ZM7117.49,7168.53l-7.06,4.04v.51l7.06-4.11v-.45ZM7117.49,7169.3l-7.06,4.11v.45l7.06-4.04v-.51ZM7117.49,7170.13l-7.06,4.04v.51l7.06-4.04v-.51ZM7117.43,7170.97l-7,4.04v.45l6.93-3.98c0-.19.06-.32.06-.51ZM7117.3,7171.8l-6.87,3.98v.51l6.8-3.98c0-.19.06-.32.06-.51ZM7117.17,7172.7l-6.74,3.92v.45l6.68-3.85c.06-.19,0-.32.06-.51ZM7116.98,7173.6l-6.55,3.79v.51l6.42-3.72c.06-.19.06-.39.13-.58ZM7116.78,7174.56l-6.35,3.66v.45l6.16-3.53.19-.58ZM7116.46,7175.53l-6.03,3.47v.51l5.84-3.34c.06-.19.13-.45.19-.64ZM7116.08,7176.55l-5.65,3.27v.45l5.39-3.08c.06-.19.19-.45.26-.64ZM7115.63,7177.64l-5.2,2.95v.51l4.88-2.82c.13-.19.19-.45.32-.64ZM7115.05,7178.74l-4.62,2.7v.45l4.24-2.44c.13-.26.26-.45.39-.71ZM7110.69,7182.91l-.26.13v.45l.51-.26-.26-.32ZM7111.39,7183.61l-.19-.19-.77.39v.51l.64-.38.32-.32ZM7116.66,7188.94l-5.07-5.07c-.39.39-.77.71-1.16,1.03v4.04h6.23ZM7113.83,7180.73c.19-.26.32-.51.51-.77l-3.79,2.18h.83l2.44-1.41ZM7112.23,7155.24c-.06-.13-.26-.19-.32-.32l-1.09.64h.83l.58-.32ZM7111.39,7182.52l-.45.26.32.26.96-.51h-.83ZM7111.58,7154.6l-.32.32.45-.26-.13-.06ZM7111.58,7183.42l.58-.58-.71.38.13.19ZM7111.84,7154.41c.39.39.71.77,1.03,1.16h4.62v-6.42h-.39l-5.26,5.26ZM7112.87,7182.52c-.32.39-.64.71-1.03,1.09l5.26,5.33h.39v-6.42h-4.62ZM7112.74,7182.14c.26-.26.51-.51.71-.83l-1.48.83h.77ZM7112.48,7155.56l-.06-.13-.19.13h.26ZM7113.19,7155.82c2.18,2.7,3.66,5.97,4.3,9.5v-9.5h-4.3ZM7117.49,7172.7c-.64,3.53-2.12,6.74-4.3,9.44h4.3v-9.44ZM7117.49,7148.76v-.06l-.06.06h.06ZM7117.43,7189.2l.06.13v-.13h-.06Z"/>
  <rect class="st0" x="7066" y="7236.82" width="267" height=".25"/>
</svg>