<?xml version="1.0" encoding="UTF-8"?>
<svg id="Layer_1" xmlns="http://www.w3.org/2000/svg" version="1.1" viewBox="0 0 267.01 119.33">
  <!-- Generator: Adobe Illustrator 29.2.1, SVG Export Plug-In . SVG Version: 2.1.0 Build 116)  -->
  <defs>
    <style>
      .st0 {
        fill: #fff;
      }
    </style>
  </defs>
  <g>
    <path class="st0" d="M13.2,110.93h-5.45v-41.41h5.34v4.29h.17c.89-1.47,2.19-2.68,3.9-3.62,1.72-.95,3.71-1.42,5.99-1.42,2.04,0,3.9.37,5.58,1.1,1.68.73,3.12,1.76,4.34,3.07,1.21,1.31,2.15,2.85,2.81,4.61.66,1.76.98,3.65.98,5.65s-.33,3.91-.98,5.68c-.66,1.78-1.58,3.33-2.78,4.64-1.2,1.31-2.64,2.35-4.34,3.1-1.7.75-3.61,1.13-5.73,1.13-1.97,0-3.82-.43-5.55-1.28-1.74-.85-3.11-2.05-4.11-3.6h-.17v18.04ZM31.3,83.2c0-1.28-.19-2.51-.58-3.71-.39-1.2-.97-2.26-1.74-3.19-.77-.93-1.73-1.66-2.87-2.2-1.14-.54-2.47-.81-3.97-.81-1.39,0-2.66.27-3.8.81-1.14.54-2.12,1.28-2.93,2.2-.81.93-1.44,1.99-1.88,3.19-.45,1.2-.67,2.46-.67,3.77s.22,2.57.67,3.77c.44,1.2,1.07,2.25,1.88,3.16.81.91,1.79,1.63,2.93,2.17,1.14.54,2.41.81,3.8.81,1.51,0,2.83-.28,3.97-.84,1.14-.56,2.1-1.31,2.87-2.23.77-.93,1.35-1.99,1.74-3.19.39-1.2.58-2.44.58-3.71Z"/>
    <path class="st0" d="M39.83,72.59c-.04-1.16-.1-2.18-.17-3.07h5.16c.08.7.14,1.5.17,2.41.04.91.06,1.65.06,2.23h.17c.77-1.62,1.9-2.93,3.39-3.92,1.49-.99,3.16-1.48,5.02-1.48.85,0,1.57.08,2.15.23l-.23,5.05c-.77-.19-1.6-.29-2.49-.29-1.31,0-2.46.24-3.42.72-.97.48-1.77,1.13-2.41,1.94-.64.81-1.11,1.75-1.42,2.81-.31,1.06-.46,2.17-.46,3.33v14.44h-5.45v-21.58c0-.73-.02-1.68-.06-2.84Z"/>
    <path class="st0" d="M83.21,83.03v.93c0,.31-.02.62-.06.93h-21.87c.04,1.15.3,2.24.78,3.25.48,1.02,1.13,1.9,1.94,2.65s1.75,1.33,2.81,1.76c1.06.42,2.19.63,3.39.63,1.86,0,3.46-.41,4.81-1.22,1.35-.81,2.42-1.8,3.19-2.96l3.83,3.07c-1.47,1.95-3.2,3.38-5.19,4.3-1.99.92-4.21,1.38-6.64,1.38-2.09,0-4.02-.35-5.8-1.04-1.78-.7-3.31-1.67-4.58-2.93-1.28-1.26-2.28-2.77-3.02-4.55-.73-1.78-1.1-3.75-1.1-5.92s.36-4.09,1.07-5.89c.72-1.8,1.71-3.33,2.99-4.61s2.79-2.27,4.53-2.99c1.74-.72,3.62-1.07,5.64-1.07s3.85.33,5.49.99c1.65.66,3.04,1.6,4.19,2.84,1.14,1.24,2.02,2.74,2.64,4.5.62,1.76.93,3.74.93,5.94ZM77.64,80.83c-.04-1.08-.22-2.1-.55-3.04-.33-.95-.81-1.77-1.45-2.46-.64-.7-1.43-1.25-2.38-1.65-.95-.41-2.06-.61-3.33-.61-1.16,0-2.25.2-3.28.61-1.02.41-1.91.96-2.67,1.65-.75.7-1.37,1.52-1.86,2.46-.48.95-.76,1.96-.84,3.04h16.36Z"/>
    <path class="st0" d="M102.52,73.98h-6.38v23.03h-5.45v-23.03h-5.45v-4.47h5.45v-5.74c0-1.62.18-3.12.55-4.5.37-1.37.97-2.56,1.8-3.57.83-1.01,1.89-1.8,3.19-2.38,1.29-.58,2.87-.87,4.73-.87,1.31,0,2.46.14,3.42.41l-.64,4.7c-.43-.12-.85-.21-1.28-.29-.43-.08-.91-.12-1.45-.12-1.04,0-1.89.18-2.52.55-.64.37-1.13.86-1.48,1.48-.35.62-.58,1.32-.7,2.12-.12.79-.17,1.62-.17,2.47v5.74h6.38v4.47Z"/>
    <path class="st0" d="M130.94,83.03v.93c0,.31-.02.62-.06.93h-21.87c.04,1.15.3,2.24.78,3.25.48,1.02,1.13,1.9,1.94,2.65s1.75,1.33,2.81,1.76c1.06.42,2.19.63,3.39.63,1.86,0,3.46-.41,4.81-1.22,1.35-.81,2.42-1.8,3.19-2.96l3.83,3.07c-1.47,1.95-3.2,3.38-5.19,4.3-1.99.92-4.21,1.38-6.64,1.38-2.09,0-4.02-.35-5.8-1.04-1.78-.7-3.31-1.67-4.58-2.93-1.28-1.26-2.28-2.77-3.02-4.55-.73-1.78-1.1-3.75-1.1-5.92s.36-4.09,1.07-5.89c.72-1.8,1.71-3.33,2.99-4.61s2.79-2.27,4.53-2.99c1.74-.72,3.62-1.07,5.64-1.07s3.85.33,5.49.99c1.65.66,3.04,1.6,4.19,2.84,1.14,1.24,2.02,2.74,2.64,4.5.62,1.76.93,3.74.93,5.94ZM125.38,80.83c-.04-1.08-.22-2.1-.55-3.04-.33-.95-.81-1.77-1.45-2.46-.64-.7-1.43-1.25-2.38-1.65-.95-.41-2.06-.61-3.33-.61-1.16,0-2.25.2-3.28.61-1.02.41-1.91.96-2.67,1.65-.75.7-1.37,1.52-1.86,2.46-.48.95-.76,1.96-.84,3.04h16.36Z"/>
    <path class="st0" d="M134.95,72.59c-.04-1.16-.1-2.18-.17-3.07h5.16c.08.7.14,1.5.17,2.41.04.91.06,1.65.06,2.23h.17c.77-1.62,1.9-2.93,3.39-3.92,1.49-.99,3.16-1.48,5.02-1.48.85,0,1.57.08,2.15.23l-.23,5.05c-.77-.19-1.6-.29-2.49-.29-1.31,0-2.46.24-3.42.72-.97.48-1.77,1.13-2.41,1.94-.64.81-1.11,1.75-1.42,2.81-.31,1.06-.46,2.17-.46,3.33v14.44h-5.45v-21.58c0-.73-.02-1.68-.06-2.84Z"/>
    <path class="st0" d="M179.49,83.03v.93c0,.31-.02.62-.06.93h-21.87c.04,1.15.3,2.24.78,3.25.48,1.02,1.13,1.9,1.94,2.65s1.75,1.33,2.81,1.76c1.06.42,2.19.63,3.39.63,1.86,0,3.46-.41,4.81-1.22,1.35-.81,2.42-1.8,3.19-2.96l3.83,3.07c-1.47,1.95-3.2,3.38-5.19,4.3-1.99.92-4.21,1.38-6.64,1.38-2.09,0-4.02-.35-5.8-1.04-1.78-.7-3.31-1.67-4.58-2.93-1.28-1.26-2.28-2.77-3.02-4.55-.73-1.78-1.1-3.75-1.1-5.92s.36-4.09,1.07-5.89c.72-1.8,1.71-3.33,2.99-4.61s2.79-2.27,4.53-2.99c1.74-.72,3.62-1.07,5.64-1.07s3.85.33,5.49.99c1.65.66,3.04,1.6,4.19,2.84,1.14,1.24,2.02,2.74,2.64,4.5.62,1.76.93,3.74.93,5.94ZM173.92,80.83c-.04-1.08-.22-2.1-.55-3.04-.33-.95-.81-1.77-1.45-2.46-.64-.7-1.43-1.25-2.38-1.65-.95-.41-2.06-.61-3.33-.61-1.16,0-2.25.2-3.28.61-1.02.41-1.91.96-2.67,1.65-.75.7-1.37,1.52-1.86,2.46-.48.95-.76,1.96-.84,3.04h16.36Z"/>
    <path class="st0" d="M188.48,69.52c.08.7.13,1.48.17,2.35s.06,1.6.06,2.18h.17c.35-.73.82-1.42,1.42-2.06.6-.64,1.29-1.2,2.06-1.68.77-.48,1.62-.86,2.55-1.13.93-.27,1.89-.41,2.9-.41,1.78,0,3.31.3,4.58.9,1.28.6,2.34,1.4,3.19,2.41.85,1.01,1.48,2.19,1.88,3.54.41,1.35.61,2.8.61,4.35v17.05h-5.45v-15.25c0-1.12-.09-2.18-.26-3.19-.17-1.01-.49-1.89-.96-2.67-.46-.77-1.1-1.39-1.91-1.86-.81-.46-1.86-.7-3.13-.7-2.17,0-3.94.82-5.31,2.46-1.37,1.64-2.06,3.84-2.06,6.58v14.62h-5.45v-21.58c0-.73-.02-1.68-.06-2.84-.04-1.16-.1-2.18-.17-3.07h5.16Z"/>
    <path class="st0" d="M233.08,76.48c-.58-.89-1.45-1.63-2.61-2.23-1.16-.6-2.4-.9-3.71-.9-1.43,0-2.7.27-3.8.81-1.1.54-2.04,1.27-2.81,2.18-.77.91-1.36,1.96-1.77,3.16-.41,1.2-.61,2.46-.61,3.77s.2,2.57.61,3.77c.41,1.2,1,2.25,1.77,3.16.77.91,1.72,1.63,2.84,2.17,1.12.54,2.4.81,3.83.81s2.66-.27,3.8-.81c1.14-.54,2.08-1.28,2.81-2.2l3.65,3.31c-1.16,1.35-2.61,2.41-4.35,3.16-1.74.75-3.71,1.13-5.92,1.13s-4.09-.35-5.89-1.04-3.35-1.67-4.67-2.93c-1.31-1.26-2.35-2.77-3.1-4.55-.75-1.78-1.13-3.77-1.13-5.97s.37-4.14,1.1-5.92c.73-1.78,1.76-3.31,3.07-4.58,1.31-1.28,2.87-2.26,4.67-2.96,1.8-.7,3.74-1.04,5.83-1.04,1.93,0,3.86.39,5.77,1.16,1.91.77,3.43,1.9,4.55,3.36l-3.94,3.19Z"/>
    <path class="st0" d="M267.01,83.03v.93c0,.31-.02.62-.06.93h-21.87c.04,1.15.3,2.24.78,3.25.48,1.02,1.13,1.9,1.94,2.65.81.75,1.75,1.33,2.81,1.76s2.19.63,3.39.63c1.86,0,3.46-.41,4.81-1.22s2.42-1.8,3.19-2.96l3.83,3.07c-1.47,1.95-3.2,3.38-5.19,4.3-1.99.92-4.21,1.38-6.64,1.38-2.09,0-4.02-.35-5.8-1.04s-3.31-1.67-4.58-2.93c-1.28-1.26-2.28-2.77-3.02-4.55-.74-1.78-1.1-3.75-1.1-5.92s.36-4.09,1.07-5.89c.72-1.8,1.71-3.33,2.99-4.61,1.28-1.28,2.79-2.27,4.53-2.99,1.74-.72,3.62-1.07,5.64-1.07s3.85.33,5.49.99c1.65.66,3.04,1.6,4.18,2.84,1.14,1.24,2.02,2.74,2.64,4.5.62,1.76.93,3.74.93,5.94ZM261.44,80.83c-.04-1.08-.22-2.1-.55-3.04-.33-.95-.81-1.77-1.45-2.46-.64-.7-1.43-1.25-2.38-1.65-.95-.41-2.06-.61-3.33-.61-1.16,0-2.25.2-3.28.61-1.03.41-1.91.96-2.67,1.65-.75.7-1.37,1.52-1.86,2.46-.48.95-.76,1.96-.84,3.04h16.36Z"/>
  </g>
  <path class="st0" d="M56.21,58.67v-9.18h-.71v-.32h.71v-25.36h-4.37v-.32h4.37v-14.38h.26v14.38h5.52v-14.57h.26v14.57h3.4c1.28-.39,2.7-.64,4.17-.64s2.89.26,4.17.64h3.4v-14.38h.26v14.38h5.52v-14.57h.26v14.57h4.04v.32h-4.04v20.22h2.44v.32h-2.44v4.81h2.44v.32h-2.44v9.5h-.26v-9.5h-5.52v9.5h-.26v-9.5h-3.4c-.38.13-.83.26-1.22.32h2.63v.32h-11.88v-.32h3.34c-.38-.06-.83-.19-1.22-.32h-3.4v9.24h-.26v-9.24h-5.52v9.18h-.26ZM56.47,26.38v.45l5.26-3.02h-.83l-4.43,2.57ZM56.47,25.55v.45l3.85-2.18h-.83l-3.02,1.73ZM56.47,24.78v.45l2.44-1.41h-.77l-1.67.96ZM56.47,23.94v.45l1.09-.58h-.83l-.26.13ZM56.47,27.6l5.52-3.15v-.45l-5.52,3.15v.45ZM56.47,28.44l5.52-3.15v-.51l-5.52,3.21v.45ZM56.47,29.21l3.15-1.8c.32-.39.71-.77,1.09-1.09l-4.24,2.44v.45ZM56.47,30.04l1.99-1.16c.19-.26.45-.58.64-.83l-2.63,1.54v.45ZM56.47,30.81l1.28-.71c.13-.26.26-.45.39-.71l-1.67.96v.45ZM56.47,31.65l.77-.45c.06-.19.13-.45.26-.64l-1.03.64v.45ZM56.47,32.42l.39-.19.19-.58-.58.32v.45ZM56.47,33.25l.13-.06c.06-.19.06-.32.13-.51l-.26.13v.45ZM57.11,44.04h1.35c-.9-1.35-1.6-2.89-1.99-4.56v9.69h5.52v-1.54c-1.28-.9-2.44-1.99-3.34-3.27h-1.54v-.32ZM56.6,35.18c0,.19-.06.26-.06.45l5.46-3.15v-.45l-5.39,3.15ZM56.53,36.01v.45l5.46-3.15v-.51l-5.46,3.21ZM56.53,36.78v.45l5.46-3.15v-.45l-5.46,3.15ZM56.53,37.55c0,.13.06.32.06.45l5.39-3.08v-.51l-5.46,3.15ZM56.66,34.28c0,.19-.06.32-.06.51l5.39-3.08v-.51l-5.33,3.08ZM56.6,38.32c0,.13.06.32.06.45l5.33-3.08v-.45l-5.39,3.08ZM56.85,33.38c-.06.19-.06.32-.13.51l5.26-3.02v-.45l-5.14,2.95ZM56.72,39.03c0,.13.13.32.13.45l5.07-2.95v-.45l-5.2,2.95ZM56.92,39.8c.06.13.06.26.13.39l4.94-2.89v-.06c0-.13-.06-.26-.06-.38l-5.01,2.95ZM57.11,32.42c-.06.19-.06.39-.13.58l5.01-2.89v-.51l-4.88,2.82ZM57.11,40.44c.06.13.06.26.13.39l4.75-2.7v-.51l-4.88,2.82ZM57.49,31.39l-.19.58,4.69-2.7v-.45l-4.49,2.57ZM57.3,41.15l.19.39,4.49-2.63v-.45l-4.69,2.7ZM57.62,41.79c.06.13.06.26.13.38l4.24-2.44v-.51l-4.37,2.57ZM58.01,30.3c-.13.19-.19.45-.32.64l4.3-2.44v-.51l-3.98,2.31ZM57.88,42.43c.06.13.13.19.19.32l3.92-2.25v-.45l-4.11,2.38ZM58.2,43.01l.19.38,3.59-2.05v-.51l-3.79,2.18ZM58.78,29.08c-.19.26-.32.45-.45.71l3.66-2.12v-.45l-3.21,1.86ZM58.59,43.65c.06.13.13.19.19.32l3.21-1.86v-.45l-3.4,1.99ZM59.1,44.36c.06.06.06.13.13.19l.26-.19h-.38ZM59.93,27.6c-.26.26-.51.58-.77.9l2.82-1.6v-.51l-2.05,1.22ZM59.23,44.04h.83l1.93-1.09v-.51l-2.76,1.6ZM59.36,44.74c.06.13.19.19.26.32l1.28-.71h-.83l-.71.39ZM59.81,45.32c.06.13.26.13.32.26l1.86-1.03v-.19h-.51l-1.67.96ZM60.64,46.09l1.35-.77v-.45l-1.67.96c.13.13.19.13.32.26ZM61.99,25.74c-.45.32-.96.71-1.35,1.09l1.35-.77v-.32ZM60.64,44.04h.77l.58-.32v-.45l-1.35.77ZM61.15,46.6l.83-.45v-.51l-1.16.71c.13.06.19.19.32.26ZM61.73,47.05l.26-.13v-.45l-.58.32c.13.06.19.19.32.26ZM62.24,25.55v8.6c1.03-3.21,4.04-5.52,7.57-5.52s6.55,2.44,7.51,5.71v-.32h.06v-.51l-.06.06v-.39h.06v-.45h-.06v-.32h.06v-.51h-.06v-.32h.06v-.45h-.06v-.32h.06v-5.26c-1.03-.71-2.25-1.35-3.47-1.73h-8.22c-1.22.39-2.44,1.03-3.47,1.73ZM62.24,25.1c.77-.51,1.6-.96,2.5-1.28h-2.5v1.28ZM69.82,28.95c-3.92,0-7.25,3.02-7.57,6.87v1.35c.32,3.85,3.66,6.87,7.57,6.87,4.17,0,7.51-3.34,7.51-7.51s-3.34-7.57-7.51-7.57ZM62.24,39.09v.45l.26-.13c-.06-.13-.06-.26-.13-.39l-.13.06ZM62.24,39.86v.45l.51-.26c-.06-.13-.06-.26-.13-.39l-.38.19ZM62.24,40.7v.45l.9-.51c-.06-.13-.19-.19-.26-.32l-.64.39ZM62.24,41.47v.45l1.28-.71c-.06-.13-.19-.19-.26-.32l-1.03.58ZM62.24,42.3v.45l1.73-.96c-.06-.13-.19-.19-.26-.32l-1.48.83ZM62.24,43.07v.45l2.25-1.22c-.13-.06-.19-.19-.32-.32l-1.93,1.09ZM62.24,43.91v.13h.58l2.18-1.28c-.13-.06-.19-.19-.32-.26l-2.44,1.41ZM62.24,47.44l.13.06,5.46-3.15h-.83l-4.75,2.76v.32ZM62.24,46.73l4.17-2.38h-.83l-3.34,1.93v.45ZM62.24,45.96l2.76-1.6h-.77l-1.99,1.16v.45ZM62.24,45.13l1.41-.77h-.83l-.58.32v.45ZM64.75,49.17c-.9-.32-1.73-.77-2.5-1.28v1.28h2.5ZM63.01,47.95l6.16-3.6h-.77l-5.78,3.34c.13.06.26.19.39.26ZM63.72,48.34l6.87-3.98h-.83l-6.48,3.72c.13.06.32.19.45.26ZM64.17,44.04l1.48-.83c-.13-.06-.26-.19-.38-.26l-1.86,1.09h.77ZM71.94,44.36h-.77l-7.13,4.11c.13.06.32.19.45.26l7.45-4.37ZM65.58,44.04l.77-.45c-.13-.06-.26-.19-.39-.26l-1.22.71h.83ZM73.35,44.36h-.83l-7.7,4.49c.13.06.26.13.45.19l8.09-4.69ZM74.7,44.36h-.77l-8.28,4.81h.77l8.28-4.81ZM66.99,44.04l.19-.13c-.19-.06-.39-.13-.51-.19l-.51.32h.83ZM66.8,49.49l.32.13.19-.13h-.51ZM72.71,23.5c-.96-.19-1.86-.32-2.89-.32s-1.93.13-2.89.32h5.78ZM76.11,44.36h-.83l-8.28,4.81h.83l8.28-4.81ZM67.83,49.49l-.26.13c.19.06.45.13.64.13l.45-.26h-.83ZM77.39,44.42v-.06h-.71l-8.28,4.81h.77l8.22-4.75ZM69.18,49.49l-.45.26c.26,0,.51.06.77.06l.51-.32h-.83ZM77.39,45.26v-.51l-7.64,4.43h.83l6.8-3.92ZM70.59,49.49l-.58.32c.32,0,.58-.06.9-.06l.51-.26h-.83ZM77.39,46.03v-.45l-6.23,3.6h.77l5.46-3.15ZM71.62,49.69c.39-.06.71-.13,1.09-.19h-.71l-.39.19ZM77.39,40.76l-1.8,1.03c-.96,1.03-2.18,1.86-3.59,2.25h.51l4.88-2.82v-.45ZM77.39,46.86v-.51l-4.88,2.82h.83l4.04-2.31ZM77.39,41.53l-4.3,2.5h.83l3.47-1.99v-.51ZM77.39,47.44v-.26l-3.47,1.99c1.22-.39,2.44-1.03,3.47-1.73ZM77.39,42.37l-2.89,1.67h.77l2.12-1.22v-.45ZM74.89,23.82c.9.32,1.73.77,2.5,1.28v-1.28h-2.5ZM77.39,47.89c-.77.51-1.6.96-2.5,1.28h2.5v-1.28ZM77.39,43.14l-1.54.9h.83l.71-.39v-.51ZM77.39,39.93l-.77.45c-.13.26-.32.51-.51.77l1.28-.71v-.51ZM77.39,39.16l-.26.13c-.06.19-.13.45-.26.64l.51-.32v-.45ZM77.39,38.58c0,.06-.13.19-.13.26h.13v-.26ZM77.27,44.04h.13v-.06l-.13.06ZM77.39,34.41v-.06h-.06l.06.06ZM78.04,25.61l3.08-1.8h-.83l-2.63,1.54c.13.06.26.19.39.26ZM77.65,24.97l2.05-1.16h-.77l-1.28.71v.45ZM78.36,23.82h-.71v.39l.71-.39ZM77.65,25.74v.06h.06l-.06-.06ZM77.65,26.13v.45l.64-.32c-.13-.06-.19-.26-.32-.32l-.32.19ZM77.65,26.96v.45l1.22-.71c-.13-.13-.19-.19-.32-.26l-.9.51ZM77.65,27.73v.45l1.73-.96-.32-.32-1.41.83ZM77.65,28.57v.45l2.18-1.28c-.06-.13-.19-.19-.26-.32l-1.93,1.16ZM77.65,29.34v.45l2.63-1.48c-.06-.13-.19-.19-.26-.32l-2.38,1.35ZM77.65,30.17v.45l3.08-1.8c-.06-.13-.19-.19-.26-.32l-2.82,1.67ZM77.65,30.94v.45l3.47-1.99c-.06-.13-.19-.19-.26-.32l-3.21,1.86ZM77.65,31.78v.45l3.79-2.18-.19-.39-3.59,2.12ZM77.65,32.55v.45l4.11-2.38c-.06-.13-.06-.19-.13-.32l-3.98,2.25ZM77.65,33.38v.45l4.43-2.57-.19-.39-4.24,2.5ZM77.65,34.15v.45l4.69-2.7c-.06-.13-.06-.26-.13-.38l-4.56,2.63ZM77.65,34.99v.45l4.88-2.82c-.06-.13-.06-.26-.13-.39l-4.75,2.76ZM77.65,35.76v.45l5.07-2.89c-.06-.13,0-.32-.06-.45l-5.01,2.89ZM82.85,33.57l-5.2,3.02v.45l5.26-3.02c0-.13-.06-.32-.06-.45ZM82.98,34.28l-5.33,3.08v.45l5.39-3.08c0-.13-.06-.32-.06-.45ZM83.04,35.05l-5.39,3.15v.45l5.46-3.15c0-.13-.06-.32-.06-.45ZM83.11,35.82l-5.46,3.15v.45l5.46-3.15v-.45ZM83.11,36.59l-5.46,3.21v.45l5.46-3.15v-.51ZM83.11,37.43l-5.46,3.15v.45l5.39-3.08c0-.19.06-.32.06-.51ZM83.04,38.26l-5.39,3.15v.45l5.26-3.08c0-.19.13-.32.13-.51ZM82.85,39.16l-5.2,3.02v.45l5.07-2.89c.06-.19.06-.39.13-.58ZM82.66,40.12l-5.01,2.89v.45l4.81-2.76.19-.58ZM82.08,41.73c.06-.19.19-.45.26-.64l-4.69,2.7v.26h.39l4.04-2.31ZM80.28,44.36h-.83l-1.8,1.03v.45l2.63-1.48ZM78.87,44.36h-.77l-.45.26v.45l1.22-.71ZM83.17,44.61l-5.52,3.21v.45l5.52-3.15v-.51ZM79.58,45.58l.77-.96-2.7,1.6v.45l1.93-1.09ZM83.17,45.45l-5.52,3.15v.45l5.52-3.15v-.45ZM77.65,47.25c.39-.26.77-.51,1.09-.83l-1.09.58v.26ZM83.17,46.73v-.51l-5.07,2.95h.77l4.3-2.44ZM78.61,26.06l3.85-2.25h-.77l-3.4,1.99c.13.06.19.19.32.26ZM81.57,42.82c.13-.19.19-.45.32-.64l-3.27,1.86h.83l2.12-1.22ZM82.21,44.36l-2.38,1.35c-.39.45-.77.83-1.22,1.22l4.43-2.57h-.83ZM79.19,26.58l3.98-2.31v-.45h-.13l-4.17,2.44c.13.06.19.19.32.32ZM79.64,27.03l3.53-1.99v-.45l-3.79,2.18.26.26ZM83.17,47.5v-.45l-3.72,2.12h.83l2.89-1.67ZM80.15,27.6l3.02-1.73v-.51l-3.27,1.93c.06.13.19.19.26.32ZM80.8,44.04c.19-.26.32-.45.45-.71l-1.22.71h.77ZM80.6,28.12l2.57-1.48v-.45l-2.82,1.6c.06.13.19.19.26.32ZM80.99,44.36c-.19.26-.38.45-.58.71l1.22-.71h-.64ZM80.99,28.69l2.18-1.22v-.51l-2.38,1.41c.06.13.13.19.19.32ZM83.17,48.34v-.51l-2.31,1.35h.77l1.54-.83ZM81.37,29.27l1.8-1.03v-.45l-1.99,1.16c.06.13.13.19.19.32ZM83.17,43.01l-1.8,1.03h.83l.96-.51v-.51ZM83.17,42.24l-1.35.77c-.13.26-.26.45-.39.71l1.73-1.03v-.45ZM81.76,29.85l1.41-.77v-.51l-1.6.96c.06.13.13.19.19.32ZM82.08,30.49l1.09-.64v-.45l-1.28.71.19.39ZM83.17,41.41l-.83.45c-.06.19-.13.45-.26.64l1.09-.58v-.51ZM82.34,31.13l.83-.45v-.51l-.96.58c.06.13.06.26.13.39ZM83.17,49.11v-.45l-.96.51h.83l.13-.06ZM82.59,31.78l.58-.32v-.45l-.71.39c.06.13.06.26.13.39ZM83.17,40.63l-.45.19c-.06.19-.13.45-.19.64l.64-.39v-.45ZM82.85,32.42l.32-.13v-.51l-.45.26c.06.13.06.26.13.39ZM82.79,44.04h.38v-.19l-.38.19ZM83.04,33.12l.13-.06v-.45l-.26.13c.06.13.06.26.13.38ZM83.17,39.8l-.13.06c-.06.19-.06.38-.13.58l.26-.13v-.51ZM83.17,33.51v-.13l-.06.06c0,.06.06,0,.06.06Z"/>
  <path class="st0" d="M109.94,58.93v-9.56h-3.4c-1.28.39-2.7.64-4.17.64s-2.89-.26-4.17-.64h-3.4v3.1h-.26v-3.1h-4.94l-.58.58v8.99h-.26v-8.67l-1.6,1.6-.26-.26,1.86-1.8v-.45h-4.04v-.26h4.04v-20.29h-2.44v-.26h2.44v-4.88h-2.44v-.26h2.44v-11.81h.26v11.81h5.52v-14.32h.26v14.32h3.4c.39-.13.83-.32,1.22-.39h-2.57v-.26h12.33v.26h-3.85c.38.06.83.26,1.22.39h3.4v-14.12h.26v14.12h5.33v.26h-5.33v1.54c.58.45,1.16.9,1.67,1.41l2.12-2.12.26.26-2.12,2.12c.51.51.96,1.09,1.41,1.67h.32v.26h-.13c1.41,2.18,2.25,4.81,2.25,7.57,0,4.62-2.31,8.73-5.78,11.17v1.54h4.11v.26h-4.11v9.56h-.26ZM93.63,23.69l-4.62,2.7v.45l5.39-3.15h-.77ZM92.22,23.69l-3.21,1.86v.45l4.04-2.31h-.83ZM90.81,23.69l-1.8,1.09v.45l2.63-1.54h-.83ZM89.46,23.69l-.45.26v.45l1.22-.71h-.77ZM94.53,24.46v-.45l-5.52,3.15v.45l5.52-3.15ZM94.34,25.36c.06-.06.13-.06.19-.13v-.45l-5.52,3.21v.45l5.33-3.08ZM90.94,28.95l.06-.13h-.71l-1.28.77v.45l1.93-1.09ZM89.72,28.82h-.71v.39l.71-.39ZM90.23,30.17c.13-.26.26-.45.39-.71l-1.6.9v.45l1.22-.64ZM89.72,31.26c.06-.19.13-.45.26-.64l-.96.58v.45l.71-.39ZM89.33,32.29c.06-.19.19-.45.26-.64l-.58.32v.45l.32-.13ZM89.08,33.19c.06-.19.13-.32.19-.51l-.26.13v.45l.06-.06ZM94.53,33.32v-.51l-5.46,3.21c0,.13-.06.26-.06.39l.06.06,5.46-3.15ZM89.01,39.35v.32l.13-.06c0-.06-.13-.19-.13-.26ZM89.2,39.93l-.19.06v.45l.26-.13c-.06-.13,0-.26-.06-.39ZM89.4,40.63l-.39.19v.45l.51-.26c-.06-.13-.06-.26-.13-.39ZM89.59,41.28l-.58.32v.45l.77-.38-.19-.39ZM89.91,41.92l-.9.51v.45l1.03-.58c-.06-.13-.06-.26-.13-.38ZM90.17,42.56l-1.16.64v.45l1.35-.77c-.06-.13-.13-.19-.19-.32ZM90.49,43.14l-1.48.9v.45l1.73-.96c-.06-.13-.19-.26-.26-.39ZM90.87,43.78l-1.86,1.03v.45l2.12-1.16c-.06-.13-.19-.19-.26-.32ZM91.26,44.36l-2.25,1.28v.45l2.5-1.41c-.06-.13-.19-.19-.26-.32ZM91.71,44.87l-2.7,1.54v.45l2.95-1.67c-.06-.13-.19-.19-.26-.32ZM92.16,45.45l-3.15,1.8v.45l3.4-1.99c-.06-.13-.19-.13-.26-.26ZM92.54,46.03l-3.53,1.99v.45l2.38-1.35,1.16-1.09ZM89.53,49.04l1.09-1.16-1.6.96v.26h.39l.13-.06ZM89.01,49.49l.13-.13h-.13v.13ZM94.53,32.48v-.45l-5.46,3.15v.45l5.46-3.15ZM94.53,34.09v-.45l-5.46,3.15v.45l5.46-3.15ZM94.53,34.92v-.51l-5.46,3.15c0,.13.06.32.06.45l5.39-3.08ZM94.53,31.71v-.51l-5.33,3.08c0,.19-.06.32-.06.51l5.39-3.08ZM94.53,35.69v-.45l-5.33,3.08c0,.13.06.32.06.45l5.26-3.08ZM94.53,30.88v-.45l-5.14,2.95c-.06.19-.06.32-.13.51l5.26-3.02ZM94.53,36.53v-.51l-5.2,3.02c0,.13,0,.32.06.45l5.14-2.95ZM92.03,27.54c.32-.39.64-.77.96-1.09l-3.53,2.12h.77l1.8-1.03ZM94.53,30.11v-.51l-4.88,2.82-.19.58,5.07-2.89ZM94.53,37.3v-.45l-5.07,2.89c.06.13.06.32.13.45l4.94-2.89ZM94.53,38.13v-.51l-4.88,2.82c.06.13.06.26.13.39l4.75-2.7ZM94.53,29.27v-.45h-.06l-4.49,2.57c-.06.19-.13.45-.19.64l4.75-2.76ZM94.53,38.9v-.45l-4.62,2.63c.06.13.06.26.13.39l4.49-2.57ZM93.7,46.93l-3.72,2.18h.83l3.21-1.93c-.13-.06-.19-.19-.32-.26ZM93.06,28.82l-2.57,1.48c-.13.19-.19.51-.32.71l3.72-2.18h-.83ZM94.53,39.74v-.51l-4.37,2.57c.06.13.13.19.19.32l4.17-2.38ZM94.53,40.51v-.45l-4.04,2.31.19.39,3.85-2.25ZM93.12,46.48l-1.41.83-1.16,1.09,2.89-1.67c-.13-.06-.19-.19-.32-.26ZM91.64,28.82l-.45.32c-.13.26-.32.45-.45.71l1.73-1.03h-.83ZM91.19,28.57c.06-.13.19-.32.32-.45l-.71.45h.38ZM94.53,41.34v-.51l-3.72,2.18c.06.13.13.19.19.32l3.53-1.99ZM94.53,42.11v-.45l-3.4,1.93c.06.13.19.19.26.32l3.15-1.8ZM94.53,47.57c-.06-.06-.19-.13-.26-.19l-2.89,1.73h.83l2.31-1.35v-.19ZM94.53,42.95v-.51l-2.95,1.73c.06.13.13.19.19.32l2.76-1.54ZM94.53,26.38l-2.25,1.28c-.26.26-.45.64-.64.9l2.89-1.67v-.51ZM94.53,43.72v-.45l-2.57,1.48c.06.13.19.19.26.32l2.31-1.35ZM94.53,27.22l-2.31,1.35h.83l1.48-.9v-.45ZM93.31,45.19l1.09-1.09-1.99,1.16c.06.13.26.19.32.32l.58-.39ZM92.86,46.16l-.39.32.45-.26-.06-.06ZM94.53,48.08l-1.73,1.03h.77l.96-.58v-.45ZM94.53,25.68c-.58.39-1.16.83-1.6,1.28l1.6-.9v-.39ZM94.53,45.32v-.45l-.96.51-.51.51.19.19,1.28-.77ZM94.53,46.16v-.51l-1.09.64c.13.06.19.19.32.26l.77-.39ZM94.53,27.99l-.9.58h.77l.13-.06v-.51ZM94.53,46.93v-.45l-.51.26c.13.06.19.26.32.32l.19-.13ZM94.15,49.11h.39v-.26l-.39.26ZM94.53,44.55v-.06l-.13.13.13-.06ZM101.91,23.69l-7.13,4.17v.45l7.96-4.62h-.83ZM100.5,23.69l-5.71,3.34v.45l6.55-3.79h-.83ZM99.15,23.69l-4.36,2.57v.45l5.2-3.02h-.83ZM94.79,25.04c.77-.51,1.6-1.03,2.5-1.35h-2.5v1.35ZM98.26,23.69c-.58.19-1.09.39-1.6.64l-1.86,1.09v.45l3.79-2.18h-.32ZM99.41,28.82h-.83l-3.79,2.25v.45l4.62-2.7ZM98,28.82h-.77l-2.44,1.41v.45l3.21-1.86ZM96.65,28.82h-.83l-1.03.64v.45l1.86-1.09ZM95.24,28.82h-.45v.26l.45-.26ZM96.27,31.46c.32-.39.64-.71,1.03-1.03l-2.5,1.41v.45l1.48-.83ZM95.43,32.74c.13-.26.26-.45.39-.71l-1.03.64v.45l.64-.38ZM94.98,33.83l.19-.58-.38.19v.45l.19-.06ZM94.79,38.52v.19h.06c0-.06-.06-.13-.06-.19ZM94.79,47.38c1.03.71,2.25,1.35,3.47,1.73h8.22c1.22-.39,2.44-1.03,3.47-1.73v-8.67c-1.03,3.21-4.04,5.52-7.57,5.52-2.12,0-4.04-.83-5.46-2.18l-2.12,2.12v3.21ZM96.72,41.85c-.83-.83-1.54-1.93-1.86-3.08v.26l-.06.06v.45h.06v.32h-.06v.45h.06v.32l-.06.06v.45h.06v.32h-.06v.45h.06v.38h-.06v1.41l1.93-1.86ZM97.29,49.11c-.9-.32-1.73-.83-2.5-1.35v1.35h2.5ZM94.85,36.4c0,1.99.77,3.85,2.05,5.2l10.72-10.66c-1.35-1.28-3.27-2.12-5.26-2.12-4.17,0-7.51,3.4-7.51,7.57ZM103.33,23.69l-8.35,4.88h.83l8.28-4.88h-.77ZM104.68,23.69l-8.28,4.88h.77l8.35-4.88h-.83ZM97.16,41.85c1.35,1.28,3.15,2.12,5.2,2.12,3.92,0,7.19-3.02,7.57-6.87v-1.41c-.19-1.73-.96-3.34-2.12-4.56l-10.66,10.72ZM106.47,23.69h-.39l-8.35,4.88h.83l8.15-4.75c-.06,0-.19-.13-.26-.13ZM107.11,23.94l-7.96,4.62h.83l7.57-4.43c-.13-.06-.26-.13-.45-.19ZM99.48,49.37c.96.19,1.86.39,2.89.39s1.93-.19,2.89-.39h-5.78ZM99.86,23.3l-.13.13h.77l.45-.26c-.39.06-.71.06-1.09.13ZM100.18,28.82h-.19l-.26.19c.13-.06.32-.13.45-.19ZM107.88,24.27l-7.32,4.3h.77l7-4.11c-.13-.06-.32-.13-.45-.19ZM102.43,23.11l-.06-.06c-.26,0-.51.06-.77.06l-.51.32h.83l.51-.32ZM108.66,24.65l-6.74,3.92h.83l6.29-3.66c-.13-.06-.26-.19-.39-.26ZM103.71,23.17c-.26,0-.45-.06-.71-.06l-.51.32h.77l.45-.26ZM109.36,25.04l-6.03,3.53h.77l5.65-3.27c-.13-.06-.26-.19-.39-.26ZM104.8,23.3c-.19-.06-.39-.13-.58-.13l-.39.26h.83l.13-.13ZM104.61,28.82c.06,0,.13.13.19.13l.13-.13h-.32ZM109.94,25.49l-5.26,3.08h.83l4.43-2.57v-.51ZM105.51,28.82l-.32.19c.13.06.32.19.45.26l.71-.45h-.83ZM106.92,28.82l-.96.58c.13.06.32.13.45.19l1.28-.77h-.77ZM109.94,26.32l-3.85,2.25h.77l3.08-1.8v-.45ZM108.27,28.82l-1.6.96c.13.06.26.19.39.26l2.05-1.22h-.83ZM108.59,29.98l1.09-1.16-2.38,1.41c.13.06.19.19.32.26l.96-.51ZM107.44,23.69c.9.32,1.73.83,2.5,1.35v-1.35h-2.5ZM109.94,27.09l-2.5,1.48h.83l1.67-.96v-.51ZM109.94,47.76c-.77.51-1.6,1.03-2.5,1.35h2.5v-1.35ZM109.68,29.34l-.83.77-.77.83c.83.9,1.48,1.99,1.86,3.15v-5.01l-.32.26h.06ZM109.94,27.92l-1.09.64h.83l.26-.19v-.45ZM110.2,25.68v.13l.13-.06c-.06,0-.06-.06-.13-.06ZM110.58,25.93l-.39.19v.45l.71-.39c-.13-.06-.19-.19-.32-.26ZM111.16,26.38l-.96.58v.45l1.28-.71c-.13-.13-.19-.26-.32-.32ZM111.61,26.96l-1.41.77v.45l.26-.13,1.16-1.09ZM110.2,35.69c0,.26.06.45.06.71s-.06.45-.06.71v10.01c3.34-2.44,5.52-6.29,5.52-10.72,0-2.82-.9-5.46-2.38-7.57h-3.15v6.87ZM113.08,28.57c-.39-.51-.77-1.03-1.22-1.48l-.32.32h.06l-.83.83-.32.32h2.63Z"/>
  <path class="st0" d="M56.63,9.31h-4.75v6.42h4.75v.26h-4.75v26.32h4.88v.39h-4.88v6.42h6.16v.26h-6.16v.45l1.67,1.67-.26.26-1.41-1.48v8.67h-.39v-8.99l-.51-.58h-6.55v.39h1.16v.26h-1.16v8.92h-.26v-8.92h-26.32v8.92h-.39v-8.92h-.45v-.26h.45v-.39h-6.48l-.58.58v69.39h-.26V50.26l-2.89,2.89-.26-.26,3.15-3.08v-.45h-3.59v-.26h3.59v-6.42h-3.59v-.39h3.59V15.98h-4.3v-.26h4.3v-6.42h-4.3v-.38h4.3v-.39l-2.95-2.89.26-.26,2.7,2.7V0h.26v8.41l.58.51h6.48v-.26h-.45v-.39h.45V0h.39v8.28h26.32V0h.26v8.28h1.16v.39h-1.16v.26h6.55l.51-.51V0h.39v8.09l2.63-2.7.26.26-2.89,2.89v.39h4.75v.38ZM10.54,8.92l-.13-.06v.06h.13ZM15.1,15.73c.32-.38.64-.77,1.03-1.16l-5.26-5.26h-.45v6.42h4.69ZM10.41,25.49c.64-3.53,2.18-6.8,4.37-9.5h-4.37v9.5ZM17.47,25.55v-.45l-7.06,4.11c0,.13.06.32.06.45l7-4.11ZM14.78,42.3c-2.18-2.7-3.72-5.91-4.37-9.44v9.44h4.37ZM10.86,49.11l5.26-5.33c-.39-.39-.71-.71-1.03-1.09h-4.69v6.42h.45ZM10.41,49.49l.13-.13h-.13v.13ZM17.47,23.94v-.45l-7,4.04v.51l7-4.11ZM17.47,24.78v-.45l-7,4.04v.51l7-4.11ZM17.47,26.38v-.45l-7,4.04v.45l7-4.04ZM17.47,27.15v-.45l-7,4.04c0,.13.06.32.06.45l6.93-4.04ZM17.47,23.17v-.45l-6.87,3.98c0,.19-.06.32-.06.51l6.93-4.04ZM17.47,27.99v-.45l-6.87,3.98v.45l6.87-3.98ZM17.47,22.34v-.45l-6.74,3.92c0,.19-.06.32-.06.51l6.8-3.98ZM17.47,28.76v-.45l-6.8,3.98c0,.13.06.26.06.39l6.74-3.92ZM17.47,21.57v-.45l-6.61,3.79c-.06.19,0,.39-.06.58l6.68-3.92ZM17.47,29.59v-.45l-6.68,3.85c0,.13.06.32.06.45l6.61-3.85ZM17.47,30.36v-.45l-6.55,3.79c0,.13.06.32.13.45l6.42-3.79ZM17.47,20.73v-.45l-6.36,3.72c-.06.19-.06.32-.13.51l6.48-3.79ZM17.47,31.2v-.45l-6.36,3.66c.06.13.06.32.13.45l6.23-3.66ZM17.47,19.96v-.45l-6.1,3.53-.19.58,6.29-3.66ZM11.31,9.31l5.01,5.01c.39-.39.77-.71,1.16-1.03v-3.98h-6.16ZM17.47,31.97v-.45l-6.16,3.59c.06.13.06.26.13.39l6.03-3.53ZM17.47,45.06c-.39-.32-.77-.64-1.16-1.03l-5.01,5.07h6.16v-4.04ZM17.47,19.13v-.45l-5.78,3.34c-.06.19-.13.45-.19.64l5.97-3.53ZM17.47,32.8v-.45l-5.97,3.47.19.39,5.78-3.4ZM17.47,33.57v-.45l-5.71,3.34.19.39,5.52-3.27ZM17.47,18.36v-.45l-5.33,3.08c-.06.19-.19.45-.26.64l5.58-3.27ZM17.47,34.41v-.45l-5.46,3.15.19.39,5.26-3.08ZM17.47,17.52v-.45l-4.81,2.82c-.13.19-.19.45-.32.64l5.14-3.02ZM17.47,35.18v-.45l-5.14,3.02c.06.13.06.26.13.39l5.01-2.95ZM17.47,36.01v-.45l-4.88,2.82c.06.13.13.19.19.32l4.69-2.7ZM17.47,16.75v-.45l-4.17,2.44c-.13.26-.26.39-.39.64l4.56-2.63ZM17.47,36.78v-.45l-4.56,2.63.19.39,4.37-2.57ZM17.47,37.62v-.45l-4.17,2.44c.06.13.13.19.19.32l3.98-2.31ZM16.57,15.98l-2.44,1.48c-.19.26-.32.45-.51.71l3.79-2.18h-.83ZM17.47,38.39v-.45l-3.85,2.25c.06.13.19.19.26.32l3.6-2.12ZM17.47,39.22v-.45l-3.47,1.99c.06.13.19.19.26.32l3.21-1.86ZM17.47,39.99v-.45l-3.02,1.8c.06.13.13.19.19.32l2.82-1.67ZM15.23,15.98c-.26.26-.51.64-.71.9l1.48-.9h-.77ZM17.47,40.83v-.45l-2.63,1.54c.06.13.19.19.26.32l2.38-1.41ZM17.47,41.6v-.45l-1.99,1.16h.77l1.22-.71ZM15.48,42.69l.06.06.19-.06h-.26ZM17.02,15.41l-.32-.26-.96.58h.83l.45-.32ZM16.32,42.69l-.58.26c.06.13.26.19.32.32l1.03-.58h-.77ZM16.32,14.76c-.19.19-.32.39-.51.58l.71-.45-.19-.13ZM16.32,43.59l.39-.39-.45.26c0,.06.06.06.06.13ZM17.47,14.32v-.45l-.58.39-.32.32.19.19.71-.45ZM17.47,43.2v-.32l-.77.83.77-.51ZM17.47,44.04v-.45l-.71.39c.13.13.19.26.32.32l.39-.26ZM17.47,42.3v-.32l-.64.32h.64ZM17.47,15.15v-.45l-.45.26.26.32.19-.13ZM17.28,15.73l-.06-.06-.06.06h.13ZM17.47,44.68v-.32l-.19.13.19.19ZM25.82,8.92c.51-.13.96-.19,1.48-.26h-9.44v.26h7.96ZM17.86,12.97c1.99-1.67,4.3-2.89,6.87-3.66h-6.87v3.66ZM29.03,9.31h-.83l-10.33,5.97v.45h.06l11.11-6.42ZM26.84,9.31l-8.99,5.2v.45l9.76-5.65h-.77ZM25.88,9.31c-.26.06-.58.13-.83.19l-7.19,4.17v.51l8.41-4.88h-.39ZM18.05,16.43l-.19-.19v.32l.19-.13ZM18.56,16.95l-.32-.26-.38.19v.51l.71-.45ZM19.08,17.46l-.32-.32-.9.58v.45l1.22-.71ZM19.53,17.97l-.26-.32-1.41.83v.51l1.67-1.03ZM20.04,18.49l-.26-.32-1.93,1.16v.45l2.18-1.28ZM20.55,19l-.26-.32-2.44,1.41v.51l2.7-1.6ZM21.07,19.52c-.13-.13-.13-.19-.26-.32l-2.95,1.73v.45l3.21-1.86ZM20.62,20.54c.26-.26.45-.51.71-.77l-.06-.06-3.4,1.99v.51l2.76-1.67ZM21.58,19.96c-2.31,2.38-3.72,5.65-3.72,9.24s1.41,6.8,3.72,9.18l9.18-9.18-9.18-9.24ZM19.59,21.95c.19-.26.32-.51.51-.77l-2.25,1.35v.45l1.73-1.03ZM18.95,23.17c.13-.26.19-.51.32-.71l-1.41.83v.51l1.09-.64ZM18.44,24.27c.06-.19.19-.45.26-.64l-.83.51v.45l.58-.32ZM18.11,25.23l.19-.58-.45.26v.51l.26-.19ZM17.99,25.61l-.13.13v.45c.06-.19.06-.39.13-.58ZM17.86,32.16v.45l.06-.06c-.06-.13-.06-.26-.06-.39ZM17.99,32.87l-.13.06v.51l.26-.19c-.06-.13-.06-.26-.13-.39ZM18.24,33.51l-.38.26v.45l.51-.32c-.06-.13-.06-.26-.13-.39ZM18.44,34.15l-.58.39v.51l.77-.51-.19-.39ZM18.76,34.79l-.9.58v.45l1.09-.64-.19-.38ZM19.08,35.44l-1.22.71v.51l1.41-.83-.19-.39ZM19.4,36.08l-1.54.9v.45l1.73-1.03c-.06-.13-.13-.19-.19-.32ZM19.78,36.65l-1.93,1.09v.51l2.12-1.28c-.06-.13-.13-.19-.19-.32ZM20.17,37.23l-2.31,1.35v.45l2.57-1.48c-.06-.13-.19-.19-.26-.32ZM20.62,37.75l-2.76,1.6v.51l3.02-1.8c-.06-.13-.19-.19-.26-.32ZM21.32,38.58c-.06-.13-.19-.13-.26-.26l-3.21,1.86v.45l3.47-1.99v-.06ZM20.55,39.42l-2.7,1.54v.51l1.54-.96,1.16-1.09ZM17.86,41.79v.32l.77-.77-.77.45ZM22.67,42.69h-.83l-3.98,2.31c.13.06.19.19.32.26l4.49-2.57ZM21.26,42.69h-.77l-2.63,1.48v.51l3.4-1.99ZM19.91,42.69h-.83l-1.22.71v.45l2.05-1.16ZM18.5,42.69h-.64v.39l.64-.39ZM24.73,49.11c-2.57-.77-4.88-2.05-6.87-3.72v3.72h6.87ZM17.86,49.75h9.44c-.51-.06-.96-.26-1.48-.39h-7.96v.39ZM18.05,13.22l5.58-3.21c-2.05.77-3.92,1.86-5.58,3.21ZM18.76,15.98h-.71l.26.32.45-.32ZM22.99,40.06c-.13-.06-.19-.19-.32-.26l-4.43,2.5h.83l3.92-2.25ZM24.02,42.69h-.77l-4.81,2.76c.13.06.19.19.32.26l5.26-3.02ZM30.44,9.31h-.83l-11.11,6.42h.83l11.11-6.42ZM20.17,15.98h-.83l-.83.51.32.32,1.35-.83ZM22.09,39.29l-2.38,1.41-1.16,1.09,3.85-2.18c-.13-.06-.19-.26-.32-.32ZM21.52,15.98h-.77c-.58.32-1.16.71-1.73,1.03l.32.26,2.18-1.28ZM25.43,42.69h-.83l-5.58,3.21c.13.06.26.19.39.26l6.03-3.47ZM22.93,15.98h-.83l-2.57,1.54.32.26,3.08-1.8ZM23.64,40.51c-.13-.06-.26-.19-.39-.26l-3.59,2.05h.77l3.21-1.8ZM26.78,42.69h-.77l-6.35,3.66.38.19,6.74-3.85ZM31.79,9.31h-.77l-11.11,6.42h.83l11.04-6.42ZM24.34,15.98h-.83l-3.47,2.05.32.26,3.98-2.31ZM28.19,42.69h-.83l-7,4.04c.13.06.26.19.39.26l7.45-4.3ZM21.58,38.84l-1.09,1.09,1.35-.83c-.13-.06-.13-.19-.26-.26ZM25.69,15.98h-.77l-4.37,2.57.32.26,4.81-2.82ZM24.34,40.89c-.13-.06-.32-.19-.45-.26l-2.89,1.67h.83l2.5-1.41ZM29.6,42.69h-.83l-7.77,4.43c.13.06.32.19.45.26l8.15-4.69ZM22.61,18.62c1.03-.83,2.18-1.48,3.4-1.99l1.09-.64h-.83l-5.2,3.08.32.26,1.22-.71ZM33.2,9.31h-.83l-11.04,6.42h.77l11.11-6.42ZM40.2,19.77c-2.38-2.31-5.65-3.79-9.24-3.79s-6.8,1.48-9.18,3.79l9.18,9.18,9.24-9.18ZM21.77,38.58c2.38,2.31,5.58,3.72,9.18,3.72s6.87-1.41,9.24-3.72l-9.24-9.18-9.18,9.18ZM30.95,42.69h-.77l-8.41,4.81c.13.06.26.19.39.26l8.79-5.07ZM25.05,41.28c-.13-.06-.32-.13-.45-.19l-2.18,1.22h.77l1.86-1.03ZM32.37,42.69h-.83l-9.05,5.2c.13.06.39.13.51.19l9.37-5.39ZM34.55,9.31h-.77l-11.11,6.42h.83l11.04-6.42ZM33.71,42.69h-.77l-9.63,5.52c.13.06.26.13.45.19l9.95-5.71ZM25.82,41.6c-.13-.06-.32-.13-.45-.19l-1.6.9h.83l1.22-.71ZM35.96,9.31h-.83l-11.04,6.42h.77l11.11-6.42ZM35.13,42.69h-.83l-10.14,5.84c.19.06.32.13.51.19l10.46-6.03ZM36.54,42.69h-.83l-10.66,6.16c.19.06.32.06.51.13l10.98-6.29ZM26.65,41.92c-.19-.06-.32-.06-.51-.13l-.96.51h.83l.64-.38ZM36.92,9.5c-.19-.06-.32-.06-.51-.13l-10.98,6.35h.83l10.66-6.23ZM37.89,42.69h-.77l-11.11,6.42h.77l11.11-6.42ZM27.55,42.24c-.19-.06-.32-.13-.51-.19l-.45.26h.77l.19-.06ZM37.82,9.82c-.19-.06-.32-.13-.51-.19l-10.46,6.1h.77l10.21-5.91ZM28.06,15.98h-.39l-.32.19c.19-.06.45-.13.71-.19ZM39.3,42.69h-.83l-11.11,6.42h.83l11.11-6.42ZM27.36,49.37c.06,0,.13.06.19.06l.06-.06h-.26ZM28.19,49.37l-.19.13c.19,0,.51.13.71.13l.32-.26h-.83ZM28.19,8.92l.32-.13c-.39.06-.32.13-.32.13ZM38.66,10.14c-.13-.06-.26-.13-.45-.19l-10.01,5.78h.83l9.63-5.58ZM29.22,8.73l-.45.19h.83l.51-.26c-.32,0-.58.06-.9.06ZM40.65,42.69h-.77l-11.11,6.42h.83l11.04-6.42ZM29.6,49.37l-.45.26c.26,0,.51.06.77.06l.51-.32h-.83ZM39.43,10.46c-.13-.06-.32-.13-.45-.19l-9.37,5.46h.83l8.99-5.26ZM30.95,8.67h-.26l-.51.26h.77l.58-.26h-.58ZM42.06,42.69h-.83l-11.04,6.42h.77l11.11-6.42ZM31.02,49.37l-.58.32c.19,0,.32.06.51.06.06,0,.26-.06.32-.06l.51-.32h-.77ZM40.2,10.85c-.13-.06-.32-.19-.45-.26l-8.73,5.14h.77l8.41-4.88ZM40.39,38.39c2.31-2.38,3.79-5.58,3.79-9.18s-1.48-6.87-3.79-9.24l-9.18,9.24,9.18,9.18ZM32.04,8.67l-.51.26h.83l.39-.19c-.26,0-.45-.06-.71-.06ZM43.47,42.69h-.83l-11.11,6.42h.83l11.11-6.42ZM32.37,49.37l-.51.32c.32,0,.58-.06.9-.06l.45-.26h-.83ZM40.97,11.23c-.13-.06-.32-.19-.45-.26l-8.15,4.75h.83l7.77-4.49ZM33.26,8.73l-.32.19h.77l.19-.06c-.19,0-.45-.13-.64-.13ZM44.18,43.07v-.39h-.19l-11.04,6.42h.77l10.46-6.03ZM33.78,49.37l-.32.19c.39-.06.71-.06,1.09-.13v-.06h-.77ZM41.61,11.62c-.13-.06-.26-.19-.39-.26l-7.45,4.37h.77l7.06-4.11ZM33.91,15.98l.06.06.06-.06h-.13ZM33.91,42.3h.39l.26-.13c-.19.06-.45.06-.64.13ZM44.18,43.84v-.45l-9.89,5.71h.83l9.05-5.26ZM34.61,15.98l-.19.13c.19.06.32.13.51.19l.45-.32h-.77ZM44.18,8.67h-9.5c.51.06.96.13,1.48.26h8.02v-.26ZM36.15,49.37c-.51.13-.96.32-1.48.39h9.5v-.39h-8.02ZM40.58,39.03l-1.22.71c-1.03.83-2.18,1.48-3.4,1.99l-1.09.58h.83l5.2-3.02-.32-.26ZM42.32,12l-.39-.19-6.8,3.92h.83l6.35-3.72ZM35.96,15.98l-.64.45c.19.06.32.06.51.13l.96-.58h-.83ZM44.18,44.68v-.51l-8.47,4.94h.39c.26-.06.58-.19.83-.26l7.25-4.17ZM37.37,15.98c-.39.26-.83.45-1.22.71.13.06.32.19.45.26l1.54-.96h-.77ZM41.1,39.54l-4.81,2.76h.77l4.37-2.5-.32-.26ZM42.96,12.45c-.13-.06-.26-.19-.39-.26l-6.03,3.53h.83l5.58-3.27ZM38.72,15.98l-1.8,1.09c.13.06.32.13.45.19.71-.45,1.48-.83,2.18-1.28h-.83ZM37.24,9.31c2.57.77,4.94,1.99,6.93,3.66v-3.66h-6.93ZM44.18,45.39c-1.99,1.67-4.37,2.95-6.93,3.72h6.93v-3.72ZM40.13,15.98l-2.5,1.48c.13.06.32.19.45.26l2.89-1.73h-.83ZM41.61,40.06l-3.98,2.25h.83l3.47-1.99-.32-.26ZM43.54,12.9c-.13-.06-.26-.19-.39-.26l-5.2,3.08h.77l4.81-2.82ZM43.98,45.06l-5.71,3.34c2.05-.77,4.04-1.93,5.71-3.34ZM41.54,15.98l-3.21,1.86c.13.06.26.19.39.26l3.59-2.12h-.77ZM42.89,15.98l-3.92,2.31c.13.06.19.19.32.26l4.43-2.57h-.83ZM42.12,40.57l-3.08,1.73h.77l2.63-1.48-.32-.26ZM44.11,13.35c-.13-.06-.19-.19-.32-.26l-4.49,2.63h.83l3.98-2.38ZM42.32,17.65l1.09-1.09-3.85,2.18c.13.06.19.26.32.32l2.44-1.41ZM40.39,19.52l1.09-1.09-1.41.83c.13.06.19.13.32.26ZM42.64,41.02l-2.25,1.28h.83l1.73-.96-.32-.32ZM44.18,18.17v-.45l-3.53,1.99v.06c.06.06.19.13.26.26l3.27-1.86ZM44.18,36.14l-2.82,1.6c-.26.26-.45.58-.71.83v.06l3.53-1.99v-.51ZM44.18,14.19v-.51l-3.47,2.05h.77l2.7-1.54ZM44.18,36.98l-3.27,1.86.26.32,3.02-1.73v-.45ZM44.18,19v-.51l-3.08,1.8c.06.13.19.19.26.32l2.82-1.6ZM44.18,37.75l-2.76,1.6.26.32,2.5-1.41v-.51ZM44.18,17.4v-.51l-1.6.96-1.09,1.09,2.7-1.54ZM44.18,19.77v-.45l-2.63,1.48c.06.13.19.19.26.32l2.38-1.35ZM43.15,41.53l-1.35.77h.83l.77-.45-.26-.32ZM44.18,35.37l-1.8,1.03c-.19.26-.32.51-.51.77l2.31-1.35v-.45ZM44.18,38.58l-2.25,1.28.26.32,1.99-1.16v-.45ZM44.18,20.61v-.51l-2.18,1.28c.06.13.13.19.19.32l1.99-1.09ZM44.18,14.96v-.45l-2.12,1.22h.83l1.28-.77ZM44.18,21.38v-.45l-1.8,1.03c.06.13.13.19.19.32l1.6-.9ZM44.18,39.35l-1.73,1.03.26.32,1.48-.83v-.51ZM44.18,22.21v-.51l-1.48.83.19.39,1.28-.71ZM44.18,34.54l-1.16.64c-.13.26-.19.51-.32.71l1.48-.83v-.51ZM44.18,40.19l-1.28.71.32.32.96-.58v-.45ZM44.18,22.98v-.45l-1.16.64c.06.13.13.19.19.32l.96-.51ZM43.21,42.3h.71l-.26-.26-.45.26ZM44.18,33.77l-.64.32c-.06.19-.19.45-.26.64l.9-.51v-.45ZM44.18,16.56v-.32l-.83.77.83-.45ZM44.18,23.82v-.51l-.83.51c.06.13.06.19.13.32l.71-.32ZM44.18,40.96l-.77.45.32.26.45-.19v-.51ZM44.18,15.73v-.45l-.71.45h.71ZM44.18,24.59v-.45l-.58.32c.06.13.06.26.13.39l.45-.26ZM44.18,32.93l-.32.19-.19.58.51-.26v-.51ZM44.18,25.42v-.51l-.32.19c.06.13.06.26.13.39l.19-.06ZM43.92,41.92l.26.19v-.32l-.26.13ZM44.18,32.16h-.06c-.06.19-.06.32-.13.51l.19-.06v-.45ZM44.18,26.19v-.45l-.13.06c.06.13.06.26.06.39h.06ZM44.43,9.31v3.98c.38.32.77.64,1.16,1.03l5.07-5.01h-6.23ZM44.43,13.67v.32l.26-.13c-.06-.06-.19-.13-.26-.19ZM44.88,14.06l-.45.26v.45l.77-.39c-.13-.13-.19-.26-.32-.32ZM44.43,15.09v.38l.9-.83-.9.45ZM45.65,15.98l-1.22.71v.51l2.05-1.22h-.83ZM44.43,15.98v.39c.19-.13.45-.26.64-.39h-.64ZM46.87,16.11l-2.44,1.41v.45l2.7-1.54c-.06-.13-.19-.19-.26-.32ZM47.32,16.69l-2.89,1.6v.51l3.08-1.8c-.06-.13-.13-.19-.19-.32ZM47.71,17.27l-3.27,1.86v.45l3.53-1.99c-.06-.13-.19-.19-.26-.32ZM48.09,17.85l-3.66,2.05v.51l3.92-2.25c-.06-.13-.19-.19-.26-.32ZM48.48,18.42l-4.04,2.31v.45l4.24-2.44c-.06-.13-.13-.19-.19-.32ZM48.86,19l-4.43,2.5v.51l4.62-2.63-.19-.39ZM49.18,19.64l-4.75,2.7v.45l4.94-2.82c-.06-.13-.13-.19-.19-.32ZM49.51,20.22l-5.07,2.89v.51l5.2-3.02c-.06-.13-.06-.26-.13-.39ZM49.76,20.86l-5.33,3.08v.45l5.52-3.15-.19-.39ZM50.02,21.5l-5.58,3.21v.51l5.78-3.34-.19-.39ZM50.28,22.15l-5.84,3.4v.45l6.03-3.47-.19-.39ZM50.53,22.85l-6.1,3.47v.51l6.23-3.59c-.06-.13-.06-.26-.13-.39ZM50.73,23.5l-6.29,3.66v.45l6.42-3.66c-.06-.13-.06-.32-.13-.45ZM50.92,24.2l-6.48,3.72v.51l6.61-3.79c0-.13-.06-.32-.13-.45ZM51.11,24.91l-6.68,3.85v.45l6.74-3.85c0-.13-.06-.32-.06-.45ZM51.24,25.61l-6.8,3.92v.51l6.87-3.98c0-.13-.06-.32-.06-.45ZM51.37,26.38l-6.93,3.98v.45l6.93-3.98v-.45ZM51.43,27.15l-7,3.98v.51l7.06-4.04c0-.13-.06-.32-.06-.45ZM51.5,27.92l-7.06,4.04v.45l7.06-4.04v-.45ZM51.5,28.69l-7.06,4.04v.51l7.06-4.11v-.45ZM51.5,29.47l-7.06,4.11v.45l7.06-4.04v-.51ZM51.5,30.3l-7.06,4.04v.51l7.06-4.04v-.51ZM51.43,31.13l-7,4.04v.45l6.93-3.98c0-.19.06-.32.06-.51ZM51.3,31.97l-6.87,3.98v.51l6.8-3.98c0-.19.06-.32.06-.51ZM51.17,32.87l-6.74,3.92v.45l6.68-3.85c.06-.19,0-.32.06-.51ZM50.98,33.77l-6.55,3.79v.51l6.42-3.72c.06-.19.06-.39.13-.58ZM50.79,34.73l-6.35,3.66v.45l6.16-3.53.19-.58ZM50.47,35.69l-6.03,3.47v.51l5.84-3.34c.06-.19.13-.45.19-.64ZM50.08,36.72l-5.65,3.27v.45l5.39-3.08c.06-.19.19-.45.26-.64ZM49.63,37.81l-5.2,2.95v.51l4.88-2.82c.13-.19.19-.45.32-.64ZM49.06,38.9l-4.62,2.7v.45l4.24-2.44c.13-.26.26-.45.39-.71ZM44.69,43.07l-.26.13v.45l.51-.26-.26-.32ZM45.4,43.78l-.19-.19-.77.39v.51l.64-.38.32-.32ZM50.66,49.11l-5.07-5.07c-.39.39-.77.71-1.16,1.03v4.04h6.23ZM47.84,40.89c.19-.26.32-.51.51-.77l-3.79,2.18h.83l2.44-1.41ZM46.23,15.41c-.06-.13-.26-.19-.32-.32l-1.09.64h.83l.58-.32ZM45.4,42.69l-.45.26.32.26.96-.51h-.83ZM45.59,14.76l-.32.32.45-.26-.13-.06ZM45.59,43.59l.58-.58-.71.38.13.19ZM45.85,14.57c.39.39.71.77,1.03,1.16h4.62v-6.42h-.39l-5.26,5.26ZM46.87,42.69c-.32.39-.64.71-1.03,1.09l5.26,5.33h.39v-6.42h-4.62ZM46.74,42.3c.26-.26.51-.51.71-.83l-1.48.83h.77ZM46.49,15.73l-.06-.13-.19.13h.26ZM47.19,15.98c2.18,2.7,3.66,5.97,4.3,9.5v-9.5h-4.3ZM51.5,32.87c-.64,3.53-2.12,6.74-4.3,9.44h4.3v-9.44ZM51.5,8.92v-.06l-.06.06h.06ZM51.43,49.37l.06.13v-.13h-.06Z"/>
  <rect class="st0" y="96.98" width="267" height=".25"/>
</svg>